<?xml version="1.0" encoding="UTF-8" standalone="no"?>
<!-- Created with Inkscape (http://www.inkscape.org/) -->

<svg
   width="210mm"
   height="297mm"
   viewBox="0 0 210 297"
   version="1.1"
   id="svg5"
   xml:space="preserve"
   inkscape:version="1.4 (86a8ad7, 2024-10-11)"
   sodipodi:docname="02_El_Elefante_22-10-1933.svg"
   xmlns:inkscape="http://www.inkscape.org/namespaces/inkscape"
   xmlns:sodipodi="http://sodipodi.sourceforge.net/DTD/sodipodi-0.dtd"
   xmlns="http://www.w3.org/2000/svg"
   xmlns:svg="http://www.w3.org/2000/svg"><sodipodi:namedview
     id="namedview7"
     pagecolor="#ffffff"
     bordercolor="#999999"
     borderopacity="1"
     inkscape:showpageshadow="0"
     inkscape:pageopacity="0"
     inkscape:pagecheckerboard="0"
     inkscape:deskcolor="#d1d1d1"
     inkscape:document-units="mm"
     showgrid="false"
     inkscape:zoom="0.67024358"
     inkscape:cx="399.85463"
     inkscape:cy="663.19173"
     inkscape:window-width="1920"
     inkscape:window-height="1017"
     inkscape:window-x="-8"
     inkscape:window-y="-8"
     inkscape:window-maximized="1"
     inkscape:current-layer="g4241"
     showguides="false" /><defs
     id="defs2" /><g
     inkscape:label="Camada 1"
     inkscape:groupmode="layer"
     id="layer1"><g
       id="g4241"><path
         style="fill:none;stroke:#000000;stroke-width:0.2;stroke-dasharray:none;stroke-dashoffset:8.31496;stroke-opacity:1"
         d="m 95.221125,114.34268 5.805205,-87.265611 c 2.64931,-0.06696 5.29799,-0.0305 7.94734,0 l 5.8052,87.265611"
         id="path1465"
         sodipodi:nodetypes="cccc" /><path
         style="fill:none;stroke:#000000;stroke-width:0.2;stroke-dasharray:none;stroke-dashoffset:8.31496;stroke-opacity:1"
         d="M 96.669857,92.564885 H 92.15457 l -5.625208,39.587785"
         id="path1467" /><path
         style="fill:none;stroke:#000000;stroke-width:0.2;stroke-dasharray:none;stroke-dashoffset:8.31496;stroke-opacity:1"
         id="path1619"
         sodipodi:type="arc"
         sodipodi:cx="77.170059"
         sodipodi:cy="133.23756"
         sodipodi:rx="22.827101"
         sodipodi:ry="22.827101"
         sodipodi:start="1.0402162"
         sodipodi:end="4.4139377"
         sodipodi:arc-type="arc"
         d="M 88.721344,152.92625 A 22.827101,22.827101 0 0 1 64.394299,152.15466 22.827101,22.827101 0 0 1 54.591735,129.87664 22.827101,22.827101 0 0 1 70.457972,111.41958"
         sodipodi:open="true" /><path
         style="fill:none;stroke:#000000;stroke-width:0.2;stroke-dasharray:none;stroke-dashoffset:8.31496;stroke-opacity:1"
         d="m 70.45797,111.41958 26.014468,33.49566"
         id="path1621" /><path
         style="fill:none;stroke:#000000;stroke-width:0.2;stroke-dasharray:none;stroke-dashoffset:8.31496;stroke-opacity:1"
         d="M 9.2938961,177.15174 H 64.059091"
         id="path1625" /><path
         style="fill:none;stroke:#000000;stroke-width:0.2;stroke-dasharray:none;stroke-dashoffset:8.31496;stroke-opacity:1"
         d="M 9.2938961,211.01238 H 64.059091"
         id="path1627" /><path
         style="stroke-dashoffset:8.31496;stroke-width:0.2;stroke-dasharray:none"
         d="m 97.863281,124.55859 c -1.433832,0 -2.617187,1.18336 -2.617187,2.61719 0,1.43383 1.183355,2.61719 2.617187,2.61719 1.433832,0 2.617189,-1.18336 2.617189,-2.61719 0,-1.43383 -1.183357,-2.61719 -2.617189,-2.61719 z m 0,1.95704 c 0.376191,0 0.660156,0.28396 0.660156,0.66015 0,0.37619 -0.283965,0.66016 -0.660156,0.66016 -0.37619,0 -0.660156,-0.28397 -0.660156,-0.66016 0,-0.37619 0.283966,-0.66015 0.660156,-0.66015 z"
         id="path1629" /><path
         style="fill:none;stroke:#000000;stroke-width:0.2;stroke-dasharray:0.8, 0.4, 0.2, 0.4;stroke-dashoffset:0;stroke-opacity:1"
         d="m 21.401482,155.94147 v 21.21027"
         id="path1631" /><path
         style="fill:none;stroke:#000000;stroke-width:0.2;stroke-dasharray:0.8, 0.4, 0.2, 0.4;stroke-dashoffset:0;stroke-opacity:1"
         d="m 21.401482,211.01238 v 13.06394 8.20642"
         id="path1633" /><path
         style="fill:none;stroke:#000000;stroke-width:0.2;stroke-dasharray:0.6, 0.6;stroke-dashoffset:0;stroke-opacity:1"
         d="M 92.93218,140.35688 77.170057,156.06466"
         id="path1635" /><path
         style="fill:none;stroke:#000000;stroke-width:0.2;stroke-dasharray:0.8, 0.4, 0.2, 0.4;stroke-dashoffset:0;stroke-opacity:1"
         d="m 113.52756,144.91524 7.7511,8.01101"
         id="path432" /><path
         style="fill:none;stroke:#000000;stroke-width:0.2;stroke-dasharray:0.6, 0.6;stroke-dashoffset:0;stroke-opacity:1"
         d="M 96.472438,144.91524 H 113.52756"
         id="path430" /><path
         style="fill:none;stroke:#000000;stroke-width:0.2;stroke-dasharray:0.8, 0.4, 0.2, 0.4;stroke-dashoffset:0;stroke-opacity:1"
         d="m 88.721342,152.92625 7.751096,-8.01101"
         id="path1637" /><path
         style="fill:none;stroke:#000000;stroke-width:0.2;stroke-dasharray:none;stroke-dashoffset:8.31496;stroke-opacity:1"
         d="m 113.33014,92.564885 h 4.51529 l 5.62521,39.587785"
         id="path1641" /><path
         style="fill:none;stroke:#000000;stroke-width:0.2;stroke-dasharray:none;stroke-dashoffset:8.31496;stroke-opacity:1"
         id="path1643"
         sodipodi:type="arc"
         sodipodi:cx="-132.82991"
         sodipodi:cy="133.23756"
         sodipodi:rx="22.827101"
         sodipodi:ry="22.827101"
         sodipodi:start="1.0402162"
         sodipodi:end="4.4139377"
         sodipodi:arc-type="arc"
         d="m -121.27863,152.92625 a 22.827101,22.827101 0 0 1 -24.32704,-0.77159 22.827101,22.827101 0 0 1 -9.80256,-22.27802 22.827101,22.827101 0 0 1 15.86623,-18.45706"
         sodipodi:open="true"
         transform="scale(-1,1)" /><path
         style="fill:none;stroke:#000000;stroke-width:0.2;stroke-dasharray:none;stroke-dashoffset:8.31496;stroke-opacity:1"
         d="m 139.54203,111.41958 -26.01447,33.49566"
         id="path1645" /><rect
         style="fill:#cccccc;fill-opacity:0.504295;stroke:none;stroke-width:0.2;stroke-dasharray:0.2, 0.2;stroke-dashoffset:0;stroke-opacity:1"
         id="rect1715"
         width="54.76519"
         height="33.860638"
         x="145.9409"
         y="177.15173" /><path
         style="fill:none;stroke:#000000;stroke-width:0.2;stroke-dasharray:none;stroke-dashoffset:8.31496;stroke-opacity:1"
         d="m 135.10822,155.95068 c 0.50069,-0.0558 65.59788,0 65.59788,0 v 76.40141 l -90.96051,-0.52103 v 38.12962 c -3.16373,0 -6.32745,0 -9.49118,0 v -38.12962 l -90.9605139,0.52103 v -76.40141 c 0,0 65.0971899,-0.0558 65.5978769,0"
         id="path1647"
         sodipodi:nodetypes="cccccccccc" /><path
         style="fill:none;stroke:#000000;stroke-width:0.2;stroke-dasharray:none;stroke-dashoffset:8.31496;stroke-opacity:1"
         d="M 200.7061,177.15174 H 145.94091"
         id="path1649" /><path
         style="fill:none;stroke:#000000;stroke-width:0.2;stroke-dasharray:none;stroke-dashoffset:8.31496;stroke-opacity:1"
         d="M 200.7061,211.01238 H 145.94091"
         id="path1651" /><path
         style="stroke-dashoffset:8.31496;stroke-width:0.2;stroke-dasharray:none"
         d="m -112.13672,124.55859 c -1.43383,0 -2.61719,1.18336 -2.61719,2.61719 0,1.43383 1.18336,2.61719 2.61719,2.61719 1.43383,0 2.61719,-1.18336 2.61719,-2.61719 0,-1.43383 -1.18336,-2.61719 -2.61719,-2.61719 z m 0,1.95704 c 0.37619,0 0.66016,0.28396 0.66016,0.66015 0,0.37619 -0.28397,0.66016 -0.66016,0.66016 -0.37619,0 -0.66016,-0.28397 -0.66016,-0.66016 0,-0.37619 0.28397,-0.66015 0.66016,-0.66015 z"
         id="circle1653"
         transform="scale(-1,1)" /><path
         style="fill:none;stroke:#000000;stroke-width:0.2;stroke-dasharray:0.8, 0.4, 0.2, 0.4;stroke-dashoffset:0;stroke-opacity:1"
         d="m 188.59852,155.94147 v 21.21027"
         id="path1655" /><path
         style="fill:none;stroke:#000000;stroke-width:0.2;stroke-dasharray:0.8, 0.4, 0.2, 0.4;stroke-dashoffset:0;stroke-opacity:1"
         d="m 188.59852,211.01238 v 13.06394 8.20642"
         id="path1657" /><path
         style="fill:none;stroke:#000000;stroke-width:0.2;stroke-dasharray:0.6, 0.6;stroke-dashoffset:0;stroke-opacity:1"
         d="m 117.06782,140.35688 15.76212,15.70779"
         id="path1659" /><path
         style="fill:none;fill-opacity:1;stroke:#000000;stroke-width:0.2;stroke-dasharray:0.6, 0.6;stroke-dashoffset:0.36;stroke-opacity:1"
         d="m 100.25441,231.83106 h 9.49118"
         id="path1769" /><path
         style="fill:none;stroke:#000000;stroke-width:0.2;stroke-miterlimit:5.3;stroke-dasharray:0.8, 0.4, 0.2, 0.4;stroke-dashoffset:0;stroke-opacity:1"
         d="M 88.721342,152.92625 H 121.27862"
         id="path339" /></g></g></svg>
