<?xml version="1.0" encoding="UTF-8" standalone="no"?>
<!-- Created with Inkscape (http://www.inkscape.org/) -->

<svg
   width="210mm"
   height="297mm"
   viewBox="0 0 210 297"
   version="1.1"
   id="svg5"
   xml:space="preserve"
   sodipodi:docname="03_El_Buho.svg"
   inkscape:version="1.2.2 (732a01da63, 2022-12-09)"
   xmlns:inkscape="http://www.inkscape.org/namespaces/inkscape"
   xmlns:sodipodi="http://sodipodi.sourceforge.net/DTD/sodipodi-0.dtd"
   xmlns="http://www.w3.org/2000/svg"
   xmlns:svg="http://www.w3.org/2000/svg"><sodipodi:namedview
     id="namedview7"
     pagecolor="#ffffff"
     bordercolor="#999999"
     borderopacity="1"
     inkscape:showpageshadow="0"
     inkscape:pageopacity="0"
     inkscape:pagecheckerboard="0"
     inkscape:deskcolor="#d1d1d1"
     inkscape:document-units="mm"
     showgrid="false"
     inkscape:zoom="0.74564394"
     inkscape:cx="-53.644907"
     inkscape:cy="654.46787"
     inkscape:window-width="1920"
     inkscape:window-height="1017"
     inkscape:window-x="-8"
     inkscape:window-y="-8"
     inkscape:window-maximized="1"
     inkscape:current-layer="layer1" /><defs
     id="defs2" /><g
     inkscape:label="Camada 1"
     inkscape:groupmode="layer"
     id="layer1"><path
       id="circle977"
       style="stroke:#000000;stroke-width:0.2;stroke-miterlimit:5.3"
       d="M 76.150907 77.017521 A 20.962402 20.962402 0 0 0 55.188363 97.980066 A 20.962402 20.962402 0 0 0 76.150907 118.94209 A 20.962402 20.962402 0 0 0 97.113452 97.980066 A 20.962402 20.962402 0 0 0 76.150907 77.017521 z M 76.150907 85.441813 A 12.538002 12.538002 0 0 1 88.688643 97.980066 A 12.538002 12.538002 0 0 1 76.150907 110.5178 A 12.538002 12.538002 0 0 1 63.612655 97.980066 A 12.538002 12.538002 0 0 1 76.150907 85.441813 z " /><circle
       style="fill:#000000;fill-opacity:1;stroke:#000000;stroke-width:0.2;stroke-miterlimit:5.3;stroke-opacity:1"
       id="path973"
       cx="76.150841"
       cy="97.979904"
       r="8.1999998" /><path
       style="fill:#000000;fill-opacity:1;stroke:#000000;stroke-width:0.2;stroke-miterlimit:5.3;stroke-dasharray:0.6, 0.6;stroke-dashoffset:0;stroke-opacity:1"
       d="M 96.443719,116.48444 H 105 h 8.55628"
       id="path1047"
       sodipodi:nodetypes="ccc" /><path
       style="fill:none;fill-opacity:1;stroke:#000000;stroke-width:0.2;stroke-miterlimit:5.3;stroke-dasharray:0.80000001,0.40000001,0.2,0.40000001;stroke-dashoffset:0;stroke-opacity:1"
       d="m 77.530837,216.75389 15.171114,0"
       id="path3467"
       sodipodi:nodetypes="cc" /><path
       style="fill:none;fill-opacity:1;stroke:#000000;stroke-width:0.2;stroke-miterlimit:5.3;stroke-dasharray:0.600001, 0.600001;stroke-dashoffset:0;stroke-opacity:1"
       d="m 61.919355,131.55645 6.711108,36.62492"
       id="path1151"
       sodipodi:nodetypes="cc" /><path
       id="path3403"
       style="fill:none;fill-opacity:1;stroke:#000000;stroke-width:0.2;stroke-miterlimit:5.3;stroke-dasharray:none;stroke-dashoffset:0;stroke-opacity:1"
       d="m 77.530668,216.75369 -13.615189,21.25452 h 9.958048 l 6.231144,-9.58081 v 9.58081 h 9.374622 v -9.58081 l 6.231144,9.58081 h 9.289353 m 0,0 -12.297955,-21.25452"
       sodipodi:nodetypes="ccccccccccc" /><path
       style="fill:none;fill-opacity:1;stroke:#000000;stroke-width:0.2;stroke-miterlimit:5.3;stroke-dasharray:0.6, 0.6;stroke-dashoffset:0;stroke-opacity:1"
       d="M 92.701951,216.75389 H 105 117.29805"
       id="path3482"
       sodipodi:nodetypes="ccc" /><path
       id="path3537"
       style="stroke:#000000;stroke-width:0.2;stroke-miterlimit:5.3"
       d="m 133.84909,77.017521 a 20.962402,20.962402 0 0 1 20.96254,20.962545 20.962402,20.962402 0 0 1 -20.96254,20.962024 20.962402,20.962402 0 0 1 -20.96255,-20.962024 20.962402,20.962402 0 0 1 20.96255,-20.962545 z m 0,8.424292 A 12.538002,12.538002 0 0 0 121.31135,97.980066 12.538002,12.538002 0 0 0 133.84909,110.5178 12.538002,12.538002 0 0 0 146.38734,97.980066 12.538002,12.538002 0 0 0 133.84909,85.441813 Z" /><circle
       style="fill:#000000;fill-opacity:1;stroke:#000000;stroke-width:0.2;stroke-miterlimit:5.3;stroke-opacity:1"
       id="circle3539"
       cx="-133.84914"
       cy="97.979904"
       r="8.1999998"
       transform="scale(-1,1)" /><path
       style="fill:#000000;fill-opacity:1;stroke:#000000;stroke-width:0.2;stroke-miterlimit:5.3;stroke-dasharray:none;stroke-opacity:1"
       d="m 105,115.5 h 7.78654 l 12.76262,16.32258 V 117.22899 L 105,52.42742 84.45084,117.22899 v 14.59359 L 97.213452,115.5 H 105"
       id="path3541"
       sodipodi:nodetypes="ccccccccc" /><path
       style="fill:none;fill-opacity:1;stroke:#000000;stroke-width:0.2;stroke-miterlimit:5.3;stroke-dasharray:0.8, 0.4, 0.2, 0.4;stroke-dashoffset:0;stroke-opacity:1"
       d="M 132.46916,216.75389 H 117.29805"
       id="path3545"
       sodipodi:nodetypes="cc" /><path
       style="fill:none;fill-opacity:1;stroke:#000000;stroke-width:0.2;stroke-miterlimit:5.3;stroke-dasharray:0.600001, 0.600001;stroke-dashoffset:0;stroke-opacity:1"
       d="m 148.08064,131.55645 -6.71111,36.62492"
       id="path3547"
       sodipodi:nodetypes="cc" /><path
       style="fill:none;fill-opacity:1;stroke:#000000;stroke-width:0.2;stroke-miterlimit:5.3;stroke-dasharray:none;stroke-dashoffset:0;stroke-opacity:1"
       d="m 125.64916,131.39963 h 22.43148 c 3.01943,-14.81519 13.60016,-23.08091 26.3073,-23.08144 12.70614,0.002 22.44106,10.7239 20.19259,23.23826 l -15.61148,85.19744 H 149.3357 l 8.90037,-48.57252 h 10e-6 -16.86655 v 0 l -8.90037,48.57252"
       id="path3549"
       sodipodi:nodetypes="ccccccccccc" /><path
       id="path3551"
       style="fill:none;fill-opacity:1;stroke:#000000;stroke-width:0.2;stroke-miterlimit:5.3;stroke-dasharray:none;stroke-dashoffset:0;stroke-opacity:1"
       d="m 132.46933,216.75369 13.61519,21.25452 h -9.95805 l -6.23114,-9.58081 v 9.58081 h -9.37463 v -9.58081 l -6.23114,9.58081 h -9.28935 m 0,0 12.29795,-21.25452"
       sodipodi:nodetypes="ccccccccccc" /><path
       style="fill:none;fill-opacity:1;stroke:#000000;stroke-width:0.2;stroke-miterlimit:5.3;stroke-dasharray:none;stroke-dashoffset:0;stroke-opacity:1"
       d="M 84.350805,131.39963 H 61.919391 c -3.019412,-14.81519 -13.600082,-23.08091 -26.30715,-23.08144 -12.706068,0.002 -22.440934,10.7239 -20.192476,23.23826 l 15.611393,85.19744 H 60.66434 l -8.900319,-48.57252 h -10e-6 16.866454 v 0 l 8.90034,48.57252"
       id="path952"
       sodipodi:nodetypes="ccccccccccc" /></g></svg>
