<?xml version="1.0" encoding="UTF-8" standalone="no"?>
<!-- Created with Inkscape (http://www.inkscape.org/) -->

<svg
   width="210mm"
   height="297mm"
   viewBox="0 0 210 297"
   version="1.1"
   id="svg1"
   xml:space="preserve"
   inkscape:version="1.4 (86a8ad7, 2024-10-11)"
   sodipodi:docname="03_La_Mosca.svg"
   inkscape:export-filename="..\pdf\03_La_Mosca.pdf"
   inkscape:export-xdpi="96"
   inkscape:export-ydpi="96"
   xmlns:inkscape="http://www.inkscape.org/namespaces/inkscape"
   xmlns:sodipodi="http://sodipodi.sourceforge.net/DTD/sodipodi-0.dtd"
   xmlns="http://www.w3.org/2000/svg"
   xmlns:svg="http://www.w3.org/2000/svg"><sodipodi:namedview
     id="namedview1"
     pagecolor="#ffffff"
     bordercolor="#000000"
     borderopacity="0.25"
     inkscape:showpageshadow="2"
     inkscape:pageopacity="0.0"
     inkscape:pagecheckerboard="0"
     inkscape:deskcolor="#d1d1d1"
     inkscape:document-units="mm"
     inkscape:zoom="1"
     inkscape:cx="361"
     inkscape:cy="523.5"
     inkscape:window-width="1920"
     inkscape:window-height="1017"
     inkscape:window-x="-8"
     inkscape:window-y="-8"
     inkscape:window-maximized="1"
     inkscape:current-layer="g40" /><defs
     id="defs1" /><g
     inkscape:label="Camada 1"
     inkscape:groupmode="layer"
     id="layer1"><g
       id="g40"
       transform="translate(-3.6075863,60.630595)"><path
         style="fill:none;stroke:#000000;stroke-width:0.2;stroke-dasharray:none;stroke-opacity:1"
         id="path2"
         sodipodi:type="arc"
         sodipodi:cx="100.59114"
         sodipodi:cy="67.88929"
         sodipodi:rx="8.5638027"
         sodipodi:ry="8.5638027"
         sodipodi:start="1.5756299"
         sodipodi:end="5.8832819"
         sodipodi:arc-type="arc"
         d="M 100.54975,76.452993 A 8.5638027,8.5638027 0 0 1 92.099688,69.00012 8.5638027,8.5638027 0 0 1 98.348275,59.624408 8.5638027,8.5638027 0 0 1 108.47925,64.55515"
         sodipodi:open="true" /><path
         style="fill:#000000;fill-opacity:1;stroke:#000000;stroke-width:0.2;stroke-dasharray:none;stroke-opacity:1"
         d="m 108.48406,76.453092 h -7.89292 l -4.669068,5.022691 V 94.201841 L 108.48406,111.4661 Z"
         id="path3" /><path
         style="fill:#000000;fill-opacity:1;stroke:#000000;stroke-width:0.2;stroke-dasharray:none;stroke-opacity:1"
         d="m 107.50045,62.607113 -2.52032,-8.000609 h 3.50393 c 0,0 0,8.99498 0,9.580315 -0.47595,-1.18311 -0.98361,-1.579706 -0.98361,-1.579706 z"
         id="path4"
         sodipodi:nodetypes="ccccc" /><path
         style="fill:none;fill-opacity:1;stroke:#000000;stroke-width:0.2;stroke-dasharray:none;stroke-opacity:1"
         d="m 95.92207,94.201839 c 0,0 2e-6,2e-6 -15.091863,21.156491 -6.393784,10.18028 -2.315104,18.38854 -2.315104,18.38854 H 92.736457 L 108.48406,111.4661"
         id="path5"
         sodipodi:nodetypes="ccccc" /><path
         id="rect5"
         style="fill:none;fill-opacity:1;stroke:#000000;stroke-width:0.2;stroke-dasharray:none;stroke-opacity:1"
         d="m 53.975,122.30365 c 0,3.08179 0.206219,6.81303 8.632031,12.36927 8.466655,-5.55624 8.632031,-9.14159 8.632031,-12.36927 m 0,0 V 94.191667 H 95.92231 V 81.475647 H 74.009953 l 39.146447,-56.51283 -3.13728,-2.17351 -40.651778,58.68634 H 56.828573 L 13.962455,20.838521 10.84585,23.041488 52.154439,81.475647 v 11.475785 l -40.000142,57.745308 3.137276,2.173 L 53.975,97.025085 v 25.278565"
         sodipodi:nodetypes="cccccccccccccccccccc" /><path
         style="fill:none;fill-opacity:1;stroke:#000000;stroke-width:0.2;stroke-dasharray:0.6, 0.6;stroke-dashoffset:0;stroke-opacity:1"
         d="m 73.919005,81.575897 v 12.61577"
         id="path8"
         sodipodi:nodetypes="cc" /><path
         style="fill:none;fill-opacity:1;stroke:#000000;stroke-width:0.2;stroke-dasharray:0.60000001,0.40000001,0.2,0.40000001;stroke-dashoffset:0;stroke-opacity:1"
         d="m 84.966132,81.475645 v 12.71602"
         id="path9" /><path
         style="fill:none;fill-opacity:1;stroke:#000000;stroke-width:0.2;stroke-dasharray:0.6, 0.6;stroke-dashoffset:0;stroke-opacity:1"
         d="m 95.508764,81.475645 v 12.71602"
         id="path10" /><path
         style="fill:none;fill-opacity:1;stroke:#000000;stroke-width:0.2;stroke-dasharray:0.600001, 0.600001;stroke-dashoffset:0;stroke-opacity:1"
         d="m 24.769744,132.48473 3.137156,2.1731"
         id="path11" /><path
         style="fill:none;fill-opacity:1;stroke:#000000;stroke-width:0.2;stroke-dasharray:0.60000001,0.40000001,0.2,0.40000001;stroke-dashoffset:0;stroke-opacity:1"
         d="m 37.950751,113.45626 3.137119,2.17308"
         id="path12" /><path
         style="fill:none;fill-opacity:1;stroke:#000000;stroke-width:0.2;stroke-dasharray:0.60000001,0.40000001,0.2,0.40000001;stroke-dashoffset:0;stroke-opacity:1"
         d="m 40.645998,58.584261 -3.116572,2.203185"
         id="path13" /><path
         style="fill:none;fill-opacity:1;stroke:#000000;stroke-width:0.2;stroke-dasharray:0.600001, 0.600001;stroke-dashoffset:0;stroke-opacity:1"
         d="m 27.582947,40.10566 -3.116533,2.203159"
         id="path14" /><path
         style="fill:none;fill-opacity:1;stroke:#000000;stroke-width:0.2;stroke-dasharray:0.60000001,0.40000001,0.2,0.40000001;stroke-dashoffset:0;stroke-opacity:1"
         d="m 84.845138,59.131353 3.137318,2.173221"
         id="path15" /><path
         style="fill:none;fill-opacity:1;stroke:#000000;stroke-width:0.2;stroke-dasharray:0.600001, 0.600001;stroke-dashoffset:0;stroke-opacity:1"
         d="m 97.939536,40.227821 3.137374,2.173258"
         id="path16" /><path
         style="fill:none;stroke:#000000;stroke-width:0.2;stroke-dasharray:none;stroke-opacity:1"
         id="path18"
         sodipodi:type="arc"
         sodipodi:cx="-116.37698"
         sodipodi:cy="67.88929"
         sodipodi:rx="8.5638027"
         sodipodi:ry="8.5638027"
         sodipodi:start="1.5756299"
         sodipodi:end="5.8832819"
         sodipodi:arc-type="arc"
         d="m -116.41838,76.452993 a 8.5638027,8.5638027 0 0 1 -8.45006,-7.452873 8.5638027,8.5638027 0 0 1 6.24859,-9.375712 8.5638027,8.5638027 0 0 1 10.13097,4.930742"
         sodipodi:open="true"
         transform="scale(-1,1)" /><path
         style="fill:#000000;fill-opacity:1;stroke:#000000;stroke-width:0.2;stroke-dasharray:none;stroke-opacity:1"
         d="m 108.48406,76.453092 h 7.89292 l 4.66907,5.022691 V 94.201841 L 108.48406,111.4661 Z"
         id="path19" /><path
         style="fill:#000000;fill-opacity:1;stroke:#000000;stroke-width:0.2;stroke-dasharray:none;stroke-opacity:1"
         d="m 109.46767,62.607113 2.52032,-8.000609 h -3.50393 c 0,0 0,8.99498 0,9.580315 0.47595,-1.18311 0.98361,-1.579706 0.98361,-1.579706 z"
         id="path20"
         sodipodi:nodetypes="ccccc" /><path
         style="fill:none;fill-opacity:1;stroke:#000000;stroke-width:0.2;stroke-dasharray:none;stroke-opacity:1"
         d="m 121.04605,94.201839 c 0,0 0,2e-6 15.09186,21.156491 6.39379,10.18028 2.31511,18.38854 2.31511,18.38854 h -14.22136 l -15.7476,-22.28077"
         id="path21"
         sodipodi:nodetypes="ccccc" /><path
         id="path22"
         style="fill:none;fill-opacity:1;stroke:#000000;stroke-width:0.2;stroke-dasharray:none;stroke-opacity:1"
         d="m 133.72414,34.41547 -3.29799,1.37201 19.00711,45.688167 h -6.47506 -21.91236 v 12.71602 l 39.36504,-0.0021 c 10.25248,14.293463 43.04647,60.710513 43.04647,60.710513 l 2.91197,-2.06861 -41.60496,-58.641903 V 81.475614 h -7.38073 l 19.0071,-45.688167 -3.29747,-1.37201 -19.57813,47.060177 h -0.21343 z"
         sodipodi:nodetypes="ccccccccccccccccc" /><path
         style="fill:none;fill-opacity:1;stroke:#000000;stroke-width:0.2;stroke-dasharray:0.6, 0.6;stroke-dashoffset:0;stroke-opacity:1"
         d="m 143.04911,81.575897 v 12.61577"
         id="path23"
         sodipodi:nodetypes="cc" /><path
         style="fill:none;fill-opacity:1;stroke:#000000;stroke-width:0.2;stroke-dasharray:0.60000001,0.40000001,0.2,0.40000001;stroke-dashoffset:0;stroke-opacity:1"
         d="m 132.00199,81.475645 v 12.71602"
         id="path24" /><path
         style="fill:none;fill-opacity:1;stroke:#000000;stroke-width:0.2;stroke-dasharray:0.6, 0.6;stroke-dashoffset:0;stroke-opacity:1"
         d="m 121.45936,81.475645 v 12.71602"
         id="path25" /><path
         style="fill:none;fill-opacity:1;stroke:#000000;stroke-width:0.2;stroke-dasharray:none;stroke-dashoffset:0;stroke-opacity:1"
         d="M 108.48406,64.186818 V 77.489843"
         id="path34" /><path
         style="fill:none;fill-opacity:1;stroke:#000000;stroke-width:0.2;stroke-dasharray:0.6, 0.6;stroke-dashoffset:0;stroke-opacity:1"
         d="m 137.84313,53.615994 3.29789,-1.371962"
         id="path35" /><path
         style="fill:none;fill-opacity:1;stroke:#000000;stroke-width:0.2;stroke-dasharray:0.60000001,0.40000001,0.2,0.40000001;stroke-dashoffset:0;stroke-opacity:1"
         d="m 144.43921,69.471256 3.2978,-1.37192"
         id="path36" /><path
         style="fill:none;fill-opacity:1;stroke:#000000;stroke-width:0.2;stroke-dasharray:0.60000001,0.40000001,0.2,0.40000001;stroke-dashoffset:0;stroke-opacity:1"
         d="m 158.91745,68.489985 3.2977,1.371902"
         id="path37" /><path
         style="fill:none;fill-opacity:1;stroke:#000000;stroke-width:0.2;stroke-dasharray:0.600001, 0.600001;stroke-dashoffset:0;stroke-opacity:1"
         d="m 165.65526,52.294247 3.29762,1.37187"
         id="path38" /><path
         style="fill:none;fill-opacity:1;stroke:#000000;stroke-width:0.2;stroke-dasharray:0.60000001,0.40000001,0.2,0.40000001;stroke-dashoffset:0;stroke-opacity:1"
         d="m 175.85791,115.90145 2.86725,-2.03423"
         id="path39" /><path
         style="fill:none;fill-opacity:1;stroke:#000000;stroke-width:0.2;stroke-dasharray:0.600001, 0.600001;stroke-dashoffset:0;stroke-opacity:1"
         d="m 190.1956,136.14539 2.88379,-2.04598"
         id="path40" /></g></g></svg>
