<?xml version="1.0" encoding="UTF-8" standalone="no"?>
<!-- Created with Inkscape (http://www.inkscape.org/) -->

<svg
   width="210mm"
   height="297mm"
   viewBox="0 0 210 297"
   version="1.1"
   id="svg1"
   xml:space="preserve"
   inkscape:version="1.4 (86a8ad7, 2024-10-11)"
   sodipodi:docname="05_El_Ratón_12-11-1933.svg"
   inkscape:export-filename="..\pdf\05_El_Ratón_12-11-1933.pdf"
   inkscape:export-xdpi="96"
   inkscape:export-ydpi="96"
   xmlns:inkscape="http://www.inkscape.org/namespaces/inkscape"
   xmlns:sodipodi="http://sodipodi.sourceforge.net/DTD/sodipodi-0.dtd"
   xmlns="http://www.w3.org/2000/svg"
   xmlns:svg="http://www.w3.org/2000/svg"><sodipodi:namedview
     id="namedview1"
     pagecolor="#ffffff"
     bordercolor="#000000"
     borderopacity="0.25"
     inkscape:showpageshadow="2"
     inkscape:pageopacity="0.0"
     inkscape:pagecheckerboard="0"
     inkscape:deskcolor="#d1d1d1"
     inkscape:document-units="mm"
     inkscape:zoom="1.0267829"
     inkscape:cx="267.82681"
     inkscape:cy="476.73173"
     inkscape:window-width="1920"
     inkscape:window-height="1017"
     inkscape:window-x="-8"
     inkscape:window-y="-8"
     inkscape:window-maximized="1"
     inkscape:current-layer="g28" /><defs
     id="defs1" /><g
     inkscape:label="Camada 1"
     inkscape:groupmode="layer"
     id="layer1"><g
       id="g28"
       transform="translate(1.4118989,-10.67178)"><path
         style="fill:none;fill-opacity:1;stroke:#000000;stroke-width:0.2;stroke-dasharray:none;stroke-opacity:1"
         d="m 91.833127,88.006747 -1.52505,5.456253 -19.663,7.04635 1.229389,3.43053 17.231397,-6.174882 -5.472123,19.577332"
         id="path3"
         sodipodi:nodetypes="cccccc" /><path
         style="fill:none;fill-opacity:1;stroke:#000000;stroke-width:0.2;stroke-dasharray:none;stroke-opacity:1"
         d="M 99.981,85.163852 64.974874,97.681654 C 61.077297,98.776903 56.889822,97.50332 54.256828,94.416847 51.623834,91.330373 51.026041,86.994522 52.725601,83.31071 c 1.69956,-3.683812 5.386176,-6.043013 9.441645,-6.043011 l 37.813754,1e-6"
         id="path6"
         sodipodi:nodetypes="ccsscc" /><path
         id="path8"
         style="fill:none;stroke:#000000;stroke-width:0.210908"
         d="m 80.033953,132.08471 a 10.263553,9.5406923 0 0 1 -0.451338,-11.53338 10.263553,9.5406923 0 0 1 11.830987,-3.49925 10.263553,9.5406923 0 0 1 6.801252,9.65526" /><path
         style="fill:none;fill-opacity:1;stroke:#000000;stroke-width:0.2;stroke-dasharray:none;stroke-opacity:1"
         d="M 80.033952,132.08471 H 64.684049 v 3.87129 l 33.527472,8e-5 5.376579,140.36324 5.37658,-140.36324 33.52747,-8e-5 v -3.87129 h -15.3499 c 2.91838,-3.31445 3.10294,-8.03058 0.45133,-11.53338 -2.65161,-3.5028 -7.48943,-4.93368 -11.83099,-3.49925 -4.34156,1.43443 -7.12266,5.38257 -6.80125,9.65526"
         id="path9"
         sodipodi:nodetypes="cccccccccssc" /><circle
         style="fill:#000000;fill-opacity:1;stroke:none;stroke-width:0.236364;stroke-dasharray:none;stroke-opacity:1"
         id="path14"
         cx="97.071625"
         cy="69.876999"
         r="2.9608896" /><path
         style="fill:none;fill-opacity:1;stroke:#000000;stroke-width:0.2;stroke-dasharray:0.60000001,0.40000001,0.2,0.40000001;stroke-dashoffset:0;stroke-opacity:1"
         d="M 107.1952,85.163852 V 77.267699"
         id="path30" /><path
         style="fill:none;fill-opacity:1;stroke:#000000;stroke-width:0.2;stroke-dasharray:0.6, 0.6;stroke-dashoffset:0;stroke-opacity:1"
         d="M 99.980997,85.163852 H 107.1952"
         id="path29" /><path
         style="fill:none;fill-opacity:1;stroke:#000000;stroke-width:0.2;stroke-dasharray:0.60000001,0.40000001,0.2,0.40000001;stroke-dashoffset:0;stroke-opacity:1"
         d="m 99.980997,77.267699 v 7.896153"
         id="path15" /><path
         style="fill:none;fill-opacity:1;stroke:#000000;stroke-width:0.2;stroke-dasharray:0.600001, 0.600001;stroke-dashoffset:0;stroke-opacity:1"
         d="M 103.5881,68.419326 V 42.272391"
         id="path18" /><path
         id="path19"
         style="fill:none;stroke:#000000;stroke-width:0.2"
         d="m 118.71393,77.256441 -10.59596,-24.507063 22.43952,9e-6 v -2.915338 l -23.69995,1.15e-4 -3.26944,-7.561773 -3.26944,7.561773 -23.699954,-1.15e-4 v 2.915338 l 22.439525,-9e-6 -10.595961,24.507063"
         sodipodi:nodetypes="ccccccccccc" /><path
         style="fill:none;fill-opacity:1;stroke:#000000;stroke-width:0.2;stroke-dasharray:none;stroke-opacity:1"
         d="m 115.34307,88.006747 1.52505,5.456253 19.663,7.04635 -1.22939,3.43053 -17.23139,-6.174882 5.47212,19.577332"
         id="path20"
         sodipodi:nodetypes="cccccc" /><path
         style="fill:none;fill-opacity:1;stroke:#000000;stroke-width:0.2;stroke-dasharray:none;stroke-opacity:1"
         d="m 107.1952,77.2677 37.81375,-1e-6 c 4.05548,-10e-7 7.74209,2.3592 9.44165,6.043011 1.69956,3.683811 1.10177,8.019662 -1.53122,11.106137 -2.63299,3.086475 -6.82047,4.360057 -10.71805,3.264807 L 107.1952,85.163852"
         id="path21"
         sodipodi:nodetypes="ccsscc" /><circle
         style="fill:#000000;fill-opacity:1;stroke:none;stroke-width:0.236364;stroke-dasharray:none;stroke-opacity:1"
         id="circle25"
         cx="-110.10458"
         cy="69.876999"
         r="2.9608896"
         transform="scale(-1,1)" /><path
         style="fill:none;fill-opacity:1;stroke:#000000;stroke-width:0.2;stroke-dasharray:0.6, 0.6;stroke-dashoffset:0.94;stroke-opacity:1"
         d="M 108.96135,126.70734 H 103.5881 98.214853"
         id="path27"
         sodipodi:nodetypes="ccc" /><path
         style="fill:none;fill-opacity:1;stroke:#000000;stroke-width:0.2;stroke-dasharray:0.60000001,0.40000001,0.2,0.40000001;stroke-dashoffset:0;stroke-opacity:1"
         d="M 108.96468,135.95608 H 103.5881 98.21152"
         id="path28"
         sodipodi:nodetypes="ccc" /><path
         style="fill:none;fill-opacity:1;stroke:#000000;stroke-width:0.2;stroke-dasharray:0.600001, 0.4, 0.2, 0.4;stroke-dashoffset:0;stroke-opacity:1"
         d="m 100.31866,49.834164 -1.260432,2.915213"
         id="path31" /><path
         style="fill:none;fill-opacity:1;stroke:#000000;stroke-width:0.2;stroke-dasharray:0.600001, 0.4, 0.2, 0.4;stroke-dashoffset:0;stroke-opacity:1"
         d="m 106.85754,49.834164 1.26043,2.915213"
         id="path32" /></g></g></svg>
