<?xml version="1.0" encoding="UTF-8" standalone="no"?>
<!-- Created with Inkscape (http://www.inkscape.org/) -->

<svg
   width="210mm"
   height="297mm"
   viewBox="0 0 210 297"
   version="1.1"
   id="svg1"
   xml:space="preserve"
   inkscape:version="1.4 (86a8ad7, 2024-10-11)"
   sodipodi:docname="08_La_Ardilla_03-12-1933.svg"
   inkscape:export-filename="..\pdf\08_La_Ardilla_03-12-1933.pdf"
   inkscape:export-xdpi="96"
   inkscape:export-ydpi="96"
   xmlns:inkscape="http://www.inkscape.org/namespaces/inkscape"
   xmlns:sodipodi="http://sodipodi.sourceforge.net/DTD/sodipodi-0.dtd"
   xmlns="http://www.w3.org/2000/svg"
   xmlns:svg="http://www.w3.org/2000/svg"><sodipodi:namedview
     id="namedview1"
     pagecolor="#ffffff"
     bordercolor="#000000"
     borderopacity="0.25"
     inkscape:showpageshadow="2"
     inkscape:pageopacity="0.0"
     inkscape:pagecheckerboard="0"
     inkscape:deskcolor="#d1d1d1"
     inkscape:document-units="mm"
     inkscape:zoom="0.51339146"
     inkscape:cx="-365.21838"
     inkscape:cy="410.0185"
     inkscape:window-width="1920"
     inkscape:window-height="1017"
     inkscape:window-x="-8"
     inkscape:window-y="-8"
     inkscape:window-maximized="1"
     inkscape:current-layer="g28" /><defs
     id="defs1" /><g
     inkscape:label="Camada 1"
     inkscape:groupmode="layer"
     id="layer1"><g
       id="g28"
       transform="translate(1.4118989,-10.67178)"><g
         id="g24"
         transform="translate(10.160432,6.2456516)"><path
           style="fill:none;fill-opacity:0.5;stroke:#000000;stroke-width:0.2;stroke-dasharray:0.6, 0.4, 0.2, 0.4;stroke-dashoffset:0;stroke-opacity:1"
           d="M 88.918009,52.963814 V 99.589572"
           id="path11" /><path
           style="fill:none;fill-opacity:0.5;stroke:#000000;stroke-width:0.2;stroke-dasharray:0.6, 0.6;stroke-dashoffset:0;stroke-opacity:1"
           d="m 88.918009,44.471472 v 8.492342"
           id="path2" /><path
           style="fill:none;fill-opacity:0.5;stroke:#000000;stroke-width:0.2;stroke-dasharray:0.6, 0.4, 0.2, 0.4;stroke-dashoffset:0;stroke-opacity:1"
           d="m 88.918009,44.471478 h 4.509659 4.509659"
           id="path13"
           sodipodi:nodetypes="ccc" /><path
           style="fill:none;fill-opacity:0.5;stroke:#000000;stroke-width:0.2;stroke-dasharray:0.6, 0.4, 0.2, 0.4;stroke-dashoffset:0;stroke-opacity:1"
           d="m 88.918009,52.963814 h 4.509659 4.509659"
           id="path14"
           sodipodi:nodetypes="ccc" /><path
           style="fill:none;fill-opacity:0.5;stroke:#000000;stroke-width:0.2;stroke-dasharray:0.6, 0.6;stroke-dashoffset:0;stroke-opacity:1"
           d="m 59.1637,69.310926 6.512365,4.037594"
           id="path15" /><circle
           style="fill:#000000;fill-opacity:1;stroke:none;stroke-width:0.2;stroke-dasharray:0.600001, 0.600001;stroke-dashoffset:0;stroke-opacity:1"
           id="path16"
           cx="87.870316"
           cy="38.914112"
           r="3.5001125" /><path
           style="fill:none;fill-opacity:0.5;stroke:#000000;stroke-width:0.2;stroke-dasharray:0.6, 0.6;stroke-dashoffset:0;stroke-opacity:1"
           d="M 97.937327,99.589572 H 93.427668 88.918009"
           id="path17"
           sodipodi:nodetypes="ccc" /><path
           style="fill:none;fill-opacity:0.5;stroke:#000000;stroke-width:0.2;stroke-dasharray:0.6, 0.4, 0.2, 0.4;stroke-dashoffset:0;stroke-opacity:1"
           d="M 97.937327,52.963814 V 99.589572"
           id="path18" /><path
           style="fill:none;fill-opacity:0.5;stroke:#000000;stroke-width:0.2;stroke-dasharray:0.6, 0.6;stroke-dashoffset:0;stroke-opacity:1"
           d="m 97.937327,44.471472 v 8.492342"
           id="path19" /><path
           id="path20"
           style="fill:none;fill-opacity:0.5;stroke:#000000;stroke-width:0.2;stroke-dasharray:none;stroke-opacity:1"
           d="m 102.97454,99.589572 9.71722,168.742558 c 7.3e-4,5.31083 -2.02887,10.21073 -5.64159,13.82345 -3.61272,3.61272 -8.512613,5.64232 -13.622502,5.64232 -5.109889,0 -10.009785,-2.0296 -13.622503,-5.64232 -3.612718,-3.61272 -5.642321,-8.51262 -5.641589,-13.82345 L 83.880795,99.589572 m 14.056532,0 H 122.42952 V 93.90302 h -9.08329 l -8.7e-4,-5.275891 c -8.7e-4,-4.292718 -3.47962,-7.771464 -7.77087,-7.786464 l -2.5e-4,-13.300539 31.21007,11.616791 2.11369,-5.674653 -33.32375,-12.404083 v -5.138954 m -7.636923,-2.975413 20.156923,7.81957 c 3.10958,1.156188 6.60765,0.380409 8.93562,-1.982163 2.32796,-2.362571 3.05204,-5.87171 1.84939,-8.962792 -1.20265,-3.091082 -4.10794,-5.188137 -7.41827,-5.361552 l -23.523663,-0.0054 M 88.918009,99.589572 H 64.425816 V 93.90302 h 9.083286 l 8.72e-4,-5.275891 c 8.72e-4,-4.292718 3.479619,-7.771464 7.770871,-7.786464 L 81.281101,67.540126 50.071029,79.156917 47.957339,73.482264 81.28109,61.078181 v -5.138954 m 7.636919,-2.975413 -20.15692,7.81957 c -3.109582,1.156188 -6.607655,0.380409 -8.935619,-1.982163 -2.327964,-2.362571 -3.052043,-5.87171 -1.849391,-8.962792 1.202652,-3.091082 4.107942,-5.188137 7.418264,-5.361552 l 23.523666,-0.0054 m -11.762944,-5e-6 16.272603,-26.326918 16.272602,26.326918" /><path
           style="fill:none;fill-opacity:0.5;stroke:#000000;stroke-width:0.2;stroke-dasharray:0.6, 0.6;stroke-dashoffset:0;stroke-opacity:1"
           d="m 127.69164,69.310926 -6.51237,4.037594"
           id="path23" /><circle
           style="fill:#000000;fill-opacity:1;stroke:none;stroke-width:0.2;stroke-dasharray:0.600001, 0.600001;stroke-dashoffset:0;stroke-opacity:1"
           id="circle23"
           cx="-98.985016"
           cy="38.914112"
           r="3.5001125"
           transform="scale(-1,1)" /><path
           style="fill:none;fill-opacity:1;stroke:#000000;stroke-width:0.2;stroke-dasharray:0.6, 0.4, 0.2, 0.4;stroke-dashoffset:0;stroke-opacity:1"
           d="M 93.427668,18.144554 V 36.374579"
           id="path24" /></g></g></g></svg>
