<?xml version="1.0" encoding="UTF-8" standalone="no"?>
<!-- Created with Inkscape (http://www.inkscape.org/) -->

<svg
   width="210mm"
   height="297mm"
   viewBox="0 0 793.70081 1122.5197"
   version="1.1"
   id="svg1"
   xml:space="preserve"
   inkscape:version="1.4 (86a8ad7, 2024-10-11)"
   sodipodi:docname="10_El_Pelícano_24-12-1933.svg"
   inkscape:export-filename="..\pdf\10_El_Pelícano_24-12-1933.pdf"
   inkscape:export-xdpi="96"
   inkscape:export-ydpi="96"
   xmlns:inkscape="http://www.inkscape.org/namespaces/inkscape"
   xmlns:sodipodi="http://sodipodi.sourceforge.net/DTD/sodipodi-0.dtd"
   xmlns="http://www.w3.org/2000/svg"
   xmlns:svg="http://www.w3.org/2000/svg"><sodipodi:namedview
     id="namedview1"
     pagecolor="#ffffff"
     bordercolor="#000000"
     borderopacity="0.25"
     inkscape:showpageshadow="2"
     inkscape:pageopacity="0.0"
     inkscape:pagecheckerboard="0"
     inkscape:deskcolor="#d1d1d1"
     inkscape:document-units="mm"
     inkscape:zoom="0.36302259"
     inkscape:cx="79.884836"
     inkscape:cy="902.14771"
     inkscape:window-width="1920"
     inkscape:window-height="1017"
     inkscape:window-x="-8"
     inkscape:window-y="-8"
     inkscape:window-maximized="1"
     inkscape:current-layer="layer1" /><defs
     id="defs1" /><g
     inkscape:label="Camada 1"
     inkscape:groupmode="layer"
     id="layer1"><g
       id="g34"
       transform="translate(-6.705767,6.7378257)"><path
         id="path29"
         style="fill:none;stroke:#000000;stroke-width:0.755906;stroke-dasharray:none;stroke-dashoffset:0;stroke-opacity:1"
         d="m 313.44169,910.28992 h 9.55654 m 63.57294,-855.117553 -12.32126,209.732653 -41.01613,-5.82852 -46.84346,-16.41219 -58.3835,158.71211 62.16405,19.64739 20.47881,-77.01495 c 5.33713,37.0156 45.40203,42.15791 59.51977,9.10211 l -28.66649,93.10895 26.43598,-46.8692 0.0228,335.10829 c -21.40406,-52.26874 -76.80365,-82.0726 -132.21938,-71.15315 -55.41573,10.91945 -95.36733,59.51193 -95.36033,115.99323 l 0.007,32.50444 h 118.20903 v -32.50444 h 109.34055 c -59.22497,56.47032 -54.49692,130.99083 -54.49692,130.99083 l -89.05134,8.3e-4 v -56.24363 h -117.6 l -0.001,167.26998 h 117.35684 l -10e-4,-57.45993 98.85355,-10e-4 c 0,0 7.55922,54.34703 80.55743,107.37413 72.99821,-53.0271 80.55743,-107.37413 80.55743,-107.37413 l 98.85355,10e-4 -10e-4,57.45993 h 117.35684 l -10e-4,-167.26998 h -117.6 v 56.24363 l -89.05134,-8.3e-4 c 0,0 4.72805,-74.52051 -54.49692,-130.99083 h 109.34055 v 32.50444 h 118.20903 l 0.007,-32.50444 c 0.007,-56.4813 -39.9446,-105.07378 -95.36033,-115.99323 -55.41573,-10.91945 -110.81532,18.88441 -132.21938,71.15315 l 0.0228,-335.10829 26.43598,46.8692 -28.66649,-93.10895 c 14.11774,33.0558 54.18264,27.91349 59.51977,-9.10211 l 58.29758,-19.08495 -104.63935,-287.108821 -31.5473,9.871797 55.42305,211.345434 -41.13421,5.8727 L 420.54117,55.172367 Z M 493.67065,910.28992 h -9.55654"
         sodipodi:nodetypes="cccccccccccccscccccccccccccccccccccccccccscccccccccccccc" /><path
         style="fill:none;stroke:#000000;stroke-width:0.755906;stroke-dasharray:2.26772, 1.51181, 0.755906, 1.51181;stroke-dashoffset:0;stroke-opacity:1"
         d="m 436.94305,353.11097 -4.08062,-88.20595"
         id="path18" /><path
         style="fill:none;stroke:#000000;stroke-width:0.755906;stroke-dasharray:2.26772, 1.51181, 0.755906, 1.51181;stroke-dashoffset:0;stroke-opacity:1"
         d="m 473.87856,259.0765 22.5841,84.93236"
         id="path19" /><circle
         style="fill:#000000;fill-opacity:1;stroke:none;stroke-width:0.755906;stroke-dasharray:2.26772, 2.26772;stroke-dashoffset:0;stroke-opacity:1"
         id="circle19"
         cx="-457.88159"
         cy="294.31396"
         r="11.223824"
         transform="scale(-1,1)" /><path
         style="fill:none;fill-opacity:1;stroke:#000000;stroke-width:0.755906;stroke-linejoin:bevel;stroke-dasharray:2.26772, 2.26772;stroke-dashoffset:0;stroke-opacity:1"
         d="m 439.1506,734.45901 0.0231,44.84008"
         id="path21"
         sodipodi:nodetypes="cc" /><path
         style="fill:none;fill-opacity:1;stroke:#000000;stroke-width:0.755906;stroke-linejoin:bevel;stroke-dasharray:2.26772, 2.26772;stroke-dashoffset:0;stroke-opacity:1"
         d="M 548.51428,779.29909 H 666.73031"
         id="path22" /><path
         style="fill:none;fill-opacity:1;stroke:#000000;stroke-width:0.755906;stroke-linejoin:bevel;stroke-dasharray:2.26772, 2.26772;stroke-dashoffset:0;stroke-opacity:1"
         d="M 439.1737,779.29909 H 403.55617 367.93864"
         id="path23"
         sodipodi:nodetypes="ccc" /><path
         style="fill:none;fill-opacity:1;stroke:#000000;stroke-width:0.755906;stroke-linejoin:bevel;stroke-dasharray:2.26772, 1.51181, 0.755906, 1.51181;stroke-dashoffset:0;stroke-opacity:1"
         d="m 484.11411,910.28992 v 53.56625"
         id="path24" /><path
         style="fill:none;fill-opacity:1;stroke:#000000;stroke-width:0.755906;stroke-linejoin:bevel;stroke-dasharray:2.26772, 1.51181, 0.755906, 1.51181;stroke-dashoffset:0;stroke-opacity:1"
         d="m 582.72199,910.29075 v 53.56641"
         id="path25" /><path
         style="fill:none;stroke:#000000;stroke-width:0.755906;stroke-dasharray:2.26772, 1.51181, 0.755906, 1.51181;stroke-dashoffset:0;stroke-opacity:1"
         d="m 370.16929,353.11097 4.08062,-88.20595"
         id="path27" /><path
         style="fill:none;stroke:#000000;stroke-width:0.755906;stroke-dasharray:2.26772, 1.51181, 0.755906, 1.51181;stroke-dashoffset:0;stroke-opacity:1"
         d="m 333.23378,259.0765 -22.5841,84.93236"
         id="path28" /><circle
         style="fill:#000000;fill-opacity:1;stroke:none;stroke-width:0.755906;stroke-dasharray:2.26772, 2.26772;stroke-dashoffset:0;stroke-opacity:1"
         id="circle28"
         cx="349.23077"
         cy="294.31396"
         r="11.223824" /><path
         style="fill:none;fill-opacity:1;stroke:#000000;stroke-width:0.755906;stroke-linejoin:bevel;stroke-dasharray:2.26772, 2.26772;stroke-dashoffset:0;stroke-opacity:1"
         d="m 367.96174,734.45901 -0.0231,44.84008"
         id="path30"
         sodipodi:nodetypes="cc" /><path
         style="fill:none;fill-opacity:1;stroke:#000000;stroke-width:0.755906;stroke-linejoin:bevel;stroke-dasharray:2.26772, 2.26772;stroke-dashoffset:0;stroke-opacity:1"
         d="M 258.59806,779.29909 H 140.38203"
         id="path31" /><path
         style="fill:none;fill-opacity:1;stroke:#000000;stroke-width:0.755906;stroke-linejoin:bevel;stroke-dasharray:2.26772, 1.51181, 0.755906, 1.51181;stroke-dashoffset:0;stroke-opacity:1"
         d="m 322.99823,910.28992 v 53.56625"
         id="path33" /><path
         style="fill:none;fill-opacity:1;stroke:#000000;stroke-width:0.755906;stroke-linejoin:bevel;stroke-dasharray:2.26772, 1.51181, 0.755906, 1.51181;stroke-dashoffset:0;stroke-opacity:1"
         d="m 224.39035,910.29075 v 53.56641"
         id="path34" /></g></g></svg>
