<?xml version="1.0" encoding="UTF-8" standalone="no"?>
<!-- Created with Inkscape (http://www.inkscape.org/) -->

<svg
   width="210mm"
   height="297mm"
   viewBox="0 0 210 297"
   version="1.1"
   id="svg1"
   xml:space="preserve"
   inkscape:version="1.4 (86a8ad7, 2024-10-11)"
   sodipodi:docname="11_La_Jirafa_07-01-1934.svg"
   inkscape:export-filename="..\pdf\11_La_Jirafa_07-01-1934.pdf"
   inkscape:export-xdpi="96"
   inkscape:export-ydpi="96"
   xmlns:inkscape="http://www.inkscape.org/namespaces/inkscape"
   xmlns:sodipodi="http://sodipodi.sourceforge.net/DTD/sodipodi-0.dtd"
   xmlns="http://www.w3.org/2000/svg"
   xmlns:svg="http://www.w3.org/2000/svg"><sodipodi:namedview
     id="namedview1"
     pagecolor="#ffffff"
     bordercolor="#000000"
     borderopacity="0.25"
     inkscape:showpageshadow="2"
     inkscape:pageopacity="0.0"
     inkscape:pagecheckerboard="0"
     inkscape:deskcolor="#d1d1d1"
     inkscape:document-units="mm"
     inkscape:zoom="0.36302259"
     inkscape:cx="-426.97068"
     inkscape:cy="822.26289"
     inkscape:window-width="1920"
     inkscape:window-height="1017"
     inkscape:window-x="-8"
     inkscape:window-y="-8"
     inkscape:window-maximized="1"
     inkscape:current-layer="layer1" /><defs
     id="defs1" /><g
     inkscape:label="Camada 1"
     inkscape:groupmode="layer"
     id="layer1"><g
       id="g41"
       transform="matrix(-1,0,0,1,225.33743,-3.4356642)"><path
         style="fill:none;stroke:#000000;stroke-width:0.2;stroke-linejoin:bevel;stroke-dasharray:0.6, 0.4, 0.2, 0.4;stroke-dashoffset:0;stroke-opacity:1"
         d="m 106.03608,246.02175 -0.75026,16.0407"
         id="path10" /><path
         style="fill:none;stroke:#000000;stroke-width:0.2;stroke-linejoin:bevel;stroke-dasharray:0.6, 0.4, 0.2, 0.4;stroke-dashoffset:0;stroke-opacity:1"
         d="M 115.00417,47.995325 108.04489,201.66592"
         id="path8" /><path
         style="fill:none;stroke:#000000;stroke-width:0.2;stroke-linejoin:bevel;stroke-dasharray:0.6, 0.6;stroke-dashoffset:0;stroke-opacity:1"
         d="m 115.21029,43.444051 -0.20612,4.551274"
         id="path11" /><path
         style="fill:none;stroke:#000000;stroke-width:0.2;stroke-linejoin:bevel;stroke-dasharray:0.6, 0.4, 0.2, 0.4;stroke-dashoffset:0;stroke-opacity:1"
         d="M 116.74597,9.5342285 115.42146,38.781119"
         id="path3" /><path
         style="stroke-linejoin:bevel"
         d="m 112.49609,31.410156 c -1.07031,-2e-6 -1.94726,0.878904 -1.94726,1.949219 0,1.070315 0.87695,1.949221 1.94726,1.949219 1.07031,-5e-6 1.94922,-0.878909 1.94922,-1.949219 0,-1.07031 -0.87891,-1.949214 -1.94922,-1.949219 z m 0,1 c 0.52987,3e-6 0.94922,0.419348 0.94922,0.949219 0,0.529871 -0.41934,0.949216 -0.94922,0.949219 -0.52987,10e-7 -0.94726,-0.419345 -0.94726,-0.949219 0,-0.529874 0.41739,-0.94922 0.94726,-0.949219 z"
         id="path13" /><path
         style="fill:#000000;fill-opacity:1;stroke:none;stroke-width:1;stroke-linejoin:miter;stroke-dasharray:none;stroke-dashoffset:0;stroke-opacity:1"
         d="m 76.595932,250.72444 6.621719,-1.05774 v 12.39575 h -6.621719 z"
         id="path14" /><path
         style="fill:#000000;fill-opacity:1;stroke:none;stroke-width:1;stroke-linejoin:miter;stroke-dasharray:none;stroke-dashoffset:0;stroke-opacity:1"
         d="m 93.400596,239.47739 h 12.931864 l -0.29638,6.54436 H 92.894308 l 0.506288,-6.54436"
         id="path15" /><path
         style="fill:none;stroke:#000000;stroke-width:0.2;stroke-linejoin:bevel;stroke-dasharray:0.6, 0.4, 0.2, 0.4;stroke-dashoffset:0;stroke-opacity:1"
         d="m 134.63878,246.02175 0.75026,16.0407"
         id="path16" /><path
         style="fill:none;stroke:#000000;stroke-width:0.2;stroke-linejoin:bevel;stroke-dasharray:0.6, 0.4, 0.2, 0.4;stroke-dashoffset:0;stroke-opacity:1"
         d="m 125.67069,47.995325 6.95928,153.670595"
         id="path18" /><path
         style="fill:none;stroke:#000000;stroke-width:0.2;stroke-linejoin:bevel;stroke-dasharray:0.6, 0.6;stroke-dashoffset:0;stroke-opacity:1"
         d="m 125.46457,43.444051 0.20612,4.551274"
         id="path19" /><path
         style="fill:none;stroke:#000000;stroke-width:0.2;stroke-linejoin:bevel;stroke-dasharray:0.6, 0.4, 0.2, 0.4;stroke-dashoffset:0;stroke-opacity:1"
         d="M 123.92889,9.5342285 125.2534,38.781119"
         id="path20" /><path
         style="stroke-linejoin:bevel"
         d="m 128.17877,31.410156 c 1.07031,-2e-6 1.94726,0.878904 1.94726,1.949219 0,1.070315 -0.87695,1.949221 -1.94726,1.949219 -1.07031,-5e-6 -1.94922,-0.878909 -1.94922,-1.949219 0,-1.07031 0.87891,-1.949214 1.94922,-1.949219 z m 0,1 c -0.52987,3e-6 -0.94922,0.419348 -0.94922,0.949219 0,0.529871 0.41934,0.949216 0.94922,0.949219 0.52987,10e-7 0.94726,-0.419345 0.94726,-0.949219 0,-0.529874 -0.41739,-0.94922 -0.94726,-0.949219 z"
         id="path22" /><path
         style="fill:none;stroke:#000000;stroke-width:0.2;stroke-linejoin:miter;stroke-dasharray:0.6, 0.4, 0.2, 0.4;stroke-dashoffset:0;stroke-opacity:1"
         d="m 125.67068,47.995323 h -10.6665"
         id="path25" /><path
         id="path21"
         style="fill:none;stroke:#000000;stroke-width:0.2;stroke-linejoin:miter;stroke-dasharray:none;stroke-dashoffset:0;stroke-opacity:1"
         d="m 146.48316,53.572007 -20.81248,-5.576684 m -10.6665,0 -20.81248,5.576684 M 131.74777,38.781119 129.48514,9.5342285 h -18.29542 l -2.26263,29.2468905 m 6.49437,0 h -14.44238 v 4.662932 h 14.23121 l -22.142599,5.933092 2.593313,9.678376 11.945206,-3.200709 -14.711902,190.16694 h 13.141772 l -29.440148,4.70269 v 11.33801 h 39.618588 v 32.27465 h 4.12291 4.12291 v -32.27465 h 39.61859 v -11.33801 l -29.44015,-4.70269 h 13.14177 l -14.7119,-190.16694 11.94521,3.200709 1.4693,-5.483512 1.12401,-4.194864 -22.1426,-5.933092 h 14.23121 V 38.781119 H 125.2534 m 7.37657,162.884801 2.00881,44.35583 m -26.59389,-44.35583 -2.00881,44.35583" /><path
         style="fill:#000000;fill-opacity:1;stroke:none;stroke-width:1;stroke-linejoin:miter;stroke-dasharray:none;stroke-dashoffset:0;stroke-opacity:1"
         d="m 164.07893,250.72444 -6.62172,-1.05774 v 12.39575 h 6.62172 z"
         id="path23" /><path
         style="fill:#000000;fill-opacity:1;stroke:none;stroke-width:1;stroke-linejoin:miter;stroke-dasharray:none;stroke-dashoffset:0;stroke-opacity:1"
         d="M 147.27427,239.47739 H 134.3424 l 0.29638,6.54436 h 13.14177 l -0.50628,-6.54436"
         id="path24" /><circle
         style="fill:#000000;fill-opacity:1;stroke:none;stroke-width:1;stroke-linejoin:miter;stroke-dasharray:0.600001, 0.4, 0.2, 0.4;stroke-dashoffset:0;stroke-opacity:1"
         id="path28"
         cx="115.97577"
         cy="215.09723"
         r="5.0264478" /><circle
         style="fill:#000000;fill-opacity:1;stroke:none;stroke-width:1;stroke-linejoin:miter;stroke-dasharray:0.600001, 0.4, 0.2, 0.4;stroke-dashoffset:0;stroke-opacity:1"
         id="path29"
         cx="126.63497"
         cy="238.05553"
         r="2.9167607" /><circle
         style="fill:#000000;fill-opacity:1;stroke:none;stroke-width:1;stroke-linejoin:miter;stroke-dasharray:0.600001, 0.4, 0.2, 0.4;stroke-dashoffset:0;stroke-opacity:1"
         id="path30"
         cx="138.02299"
         cy="201.06718"
         r="3.9343977" /><circle
         style="fill:#000000;fill-opacity:1;stroke:none;stroke-width:1;stroke-linejoin:miter;stroke-dasharray:0.600001, 0.4, 0.2, 0.4;stroke-dashoffset:0;stroke-opacity:1"
         id="path31"
         cx="141.02943"
         cy="254.63651"
         r="3.6725314" /><circle
         style="fill:#000000;fill-opacity:1;stroke:none;stroke-width:1;stroke-linejoin:miter;stroke-dasharray:0.600001, 0.4, 0.2, 0.4;stroke-dashoffset:0;stroke-opacity:1"
         id="path32"
         cx="93.017479"
         cy="253.54324"
         r="2.9633412" /><circle
         style="fill:#000000;fill-opacity:1;stroke:none;stroke-width:1;stroke-linejoin:miter;stroke-dasharray:0.600001, 0.4, 0.2, 0.4;stroke-dashoffset:0;stroke-opacity:1"
         id="path33"
         cx="100.67024"
         cy="227.66963"
         r="3.1572599" /><circle
         style="fill:#000000;fill-opacity:1;stroke:none;stroke-width:1;stroke-linejoin:miter;stroke-dasharray:0.600001, 0.4, 0.2, 0.4;stroke-dashoffset:0;stroke-opacity:1"
         id="path34"
         cx="116.97791"
         cy="156.9727"
         r="3.4810903" /><circle
         style="fill:#000000;fill-opacity:1;stroke:none;stroke-width:1;stroke-linejoin:miter;stroke-dasharray:0.600001, 0.4, 0.2, 0.4;stroke-dashoffset:0;stroke-opacity:1"
         id="path35"
         cx="123.71963"
         cy="181.75307"
         r="4.8525329" /><circle
         style="fill:#000000;fill-opacity:1;stroke:none;stroke-width:1;stroke-linejoin:miter;stroke-dasharray:0.600001, 0.4, 0.2, 0.4;stroke-dashoffset:0;stroke-opacity:1"
         id="path36"
         cx="109.40242"
         cy="171.68971"
         r="3.0957687" /><circle
         style="fill:#000000;fill-opacity:1;stroke:none;stroke-width:1;stroke-linejoin:miter;stroke-dasharray:0.600001, 0.4, 0.2, 0.4;stroke-dashoffset:0;stroke-opacity:1"
         id="path37"
         cx="129.56601"
         cy="134.00958"
         r="5.0515265" /><circle
         style="fill:#000000;fill-opacity:1;stroke:none;stroke-width:1;stroke-linejoin:miter;stroke-dasharray:0.600001, 0.4, 0.2, 0.4;stroke-dashoffset:0;stroke-opacity:1"
         id="path38"
         cx="106.31871"
         cy="142.39601"
         r="2.4258387" /><circle
         style="fill:#000000;fill-opacity:1;stroke:none;stroke-width:1;stroke-linejoin:miter;stroke-dasharray:0.600001, 0.4, 0.2, 0.4;stroke-dashoffset:0;stroke-opacity:1"
         id="path39"
         cx="116.43129"
         cy="118.34448"
         r="1.7405452" /><circle
         style="fill:#000000;fill-opacity:1;stroke:none;stroke-width:1;stroke-linejoin:miter;stroke-dasharray:0.600001, 0.4, 0.2, 0.4;stroke-dashoffset:0;stroke-opacity:1"
         id="path40"
         cx="117.61564"
         cy="101.30797"
         r="3.1029005" /><circle
         style="fill:#000000;fill-opacity:1;stroke:none;stroke-width:1;stroke-linejoin:miter;stroke-dasharray:0.600001, 0.4, 0.2, 0.4;stroke-dashoffset:0;stroke-opacity:1"
         id="path41"
         cx="123.35521"
         cy="64.684044"
         r="1.6798801" /></g></g></svg>
