<?xml version="1.0" encoding="UTF-8" standalone="no"?>
<!-- Created with Inkscape (http://www.inkscape.org/) -->

<svg
   width="210mm"
   height="297mm"
   viewBox="0 0 210 297"
   version="1.1"
   id="svg1"
   xml:space="preserve"
   inkscape:version="1.4 (86a8ad7, 2024-10-11)"
   sodipodi:docname="14_El_Avestruz_28-01-1934.svg"
   inkscape:export-filename="..\pdf\14_El_Avestruz_28-01-1934.pdf"
   inkscape:export-xdpi="96"
   inkscape:export-ydpi="96"
   xmlns:inkscape="http://www.inkscape.org/namespaces/inkscape"
   xmlns:sodipodi="http://sodipodi.sourceforge.net/DTD/sodipodi-0.dtd"
   xmlns="http://www.w3.org/2000/svg"
   xmlns:svg="http://www.w3.org/2000/svg"><sodipodi:namedview
     id="namedview1"
     pagecolor="#ffffff"
     bordercolor="#000000"
     borderopacity="0.25"
     inkscape:showpageshadow="2"
     inkscape:pageopacity="0.0"
     inkscape:pagecheckerboard="0"
     inkscape:deskcolor="#d1d1d1"
     inkscape:document-units="mm"
     inkscape:zoom="0.37220528"
     inkscape:cx="-13.433447"
     inkscape:cy="643.46212"
     inkscape:window-width="1920"
     inkscape:window-height="1017"
     inkscape:window-x="-8"
     inkscape:window-y="-8"
     inkscape:window-maximized="1"
     inkscape:current-layer="layer1" /><defs
     id="defs1" /><g
     inkscape:label="Camada 1"
     inkscape:groupmode="layer"
     id="layer1"><g
       id="g37"
       transform="translate(-0.08639,-16.416298)"><path
         style="fill:none;stroke:#000000;stroke-width:0.2;stroke-dasharray:0.6, 0.4, 0.2, 0.4;stroke-dashoffset:0"
         d="m 112.63198,177.84073 1.13628,42.30846"
         id="path19" /><path
         style="fill:none;stroke:#000000;stroke-width:0.2;stroke-dasharray:0.6, 0.4, 0.2, 0.4;stroke-dashoffset:0.31"
         d="m 110.1433,85.177072 0.50474,18.793428"
         id="path17" /><path
         style="fill:none;stroke:#000000;stroke-width:0.2;stroke-dasharray:0.6, 0.4, 0.2, 0.4;stroke-dashoffset:0"
         d="m 182.77972,203.432 v -9.13988"
         id="rect4"
         sodipodi:nodetypes="cc" /><path
         style="fill:#000000;fill-opacity:1;stroke:#000000;stroke-width:0.212174;stroke-dasharray:none;stroke-dashoffset:0"
         id="path16"
         sodipodi:type="arc"
         sodipodi:cx="110.39215"
         sodipodi:cy="94.46759"
         sodipodi:rx="2.4731078"
         sodipodi:ry="2.4731078"
         sodipodi:start="4.6876223"
         sodipodi:end="1.5411543"
         sodipodi:arc-type="slice"
         d="m 110.33091,91.995241 a 2.4731078,2.4731078 0 0 1 2.53343,2.405078 2.4731078,2.4731078 0 0 1 -2.39889,2.539293 l -0.0733,-2.472022 z" /><path
         style="fill:none;stroke:#000000;stroke-width:0.2;stroke-dasharray:0.6, 0.4, 0.2, 0.4;stroke-dashoffset:0"
         d="m 97.5408,177.84073 -1.13628,42.30846"
         id="path28" /><path
         style="fill:none;stroke:#000000;stroke-width:0.2;stroke-dasharray:0.6, 0.4, 0.2, 0.4;stroke-dashoffset:0.31"
         d="M 100.02948,85.177072 99.52474,103.9705"
         id="path29" /><path
         style="fill:none;stroke:#000000;stroke-width:0.2;stroke-dasharray:0.6, 0.4, 0.2, 0.4;stroke-dashoffset:0"
         d="m 27.39306,203.432 v -9.13988"
         id="path31"
         sodipodi:nodetypes="cc" /><path
         style="fill:none;stroke:#000000;stroke-width:0.2;stroke-dasharray:0.6, 0.6;stroke-dashoffset:0"
         d="m 96.40452,220.14919 h 17.36374"
         id="path32"
         sodipodi:nodetypes="cc" /><path
         style="fill:#000000;fill-opacity:1;stroke:#000000;stroke-width:0.212174;stroke-dasharray:none;stroke-dashoffset:0"
         id="path34"
         sodipodi:type="arc"
         sodipodi:cx="-99.780632"
         sodipodi:cy="94.46759"
         sodipodi:rx="2.4731078"
         sodipodi:ry="2.4731078"
         sodipodi:start="4.6876223"
         sodipodi:end="1.5411543"
         sodipodi:arc-type="slice"
         d="m -99.841876,91.995241 a 2.4731078,2.4731078 0 0 1 2.533437,2.405078 2.4731078,2.4731078 0 0 1 -2.398896,2.539293 l -0.0733,-2.472022 z"
         transform="scale(-1,1)" /><path
         style="fill:none;fill-opacity:1;stroke:#000000;stroke-width:0.2;stroke-dasharray:0.600001, 0.4, 0.2, 0.4;stroke-dashoffset:0.309999;stroke-opacity:1"
         d="M 99.524739,103.9705 H 110.64804"
         id="path36" /><path
         id="path37"
         style="fill:none;fill-opacity:1;stroke:#000000;stroke-width:0.2;stroke-dasharray:none;stroke-dashoffset:0.309999;stroke-opacity:1"
         d="M 105.08639,277.65203 V 220.14919 M 99.906324,89.7671 a 4.8130908,4.8130908 0 0 0 -4.940367,4.670465 4.8130908,4.8130908 0 0 0 4.658591,4.951564 m 0.348722,178.263061 0.77219,-57.503 m 9.521,-130.38209 a 4.8130908,4.8130908 0 0 1 4.94037,4.670465 4.8130908,4.8130908 0 0 1 -4.65859,4.951564 m -0.34873,178.263061 -0.77219,-57.503 m -0.17021,-167.968613 0.88619,32.996495 c 5.16148,-0.10824 9.49679,3.992362 9.63334,9.153175 0.13655,5.16081 -3.96862,9.475393 -9.1286,9.640253 l 1.98406,73.87465 c 0,0 16.43794,-0.77313 20.4609,16.45385 h 17.227 c 1.52574,-2.56958 4.32255,-4.14282 7.3385,-4.14553 3.01595,-0.003 5.80868,1.57234 7.3815,4.14553 l 17.73972,-0.007 v -11.46618 h 20.24231 v 32.08004 H 182.77972 V 203.432 L 165.04,203.43183 c -1.57237,2.57263 -4.37069,4.14872 -7.38578,4.14686 -3.01509,-0.002 -5.76607,-1.57384 -7.33422,-4.14686 h -17.227 c -2.69827,15.12703 -19.32474,16.7173 -19.32474,16.7173 l 1.54437,57.50289 H 94.86015 l 1.54437,-57.50289 c 0,0 -16.62647,-1.59027 -19.32474,-16.7173 h -17.227 c -1.56815,2.57302 -4.31913,4.14486 -7.33422,4.14686 -3.01509,0.002 -5.81341,-1.57423 -7.38578,-4.14686 l -17.73972,1.7e-4 v 11.47386 H 7.15075 V 182.82582 H 27.39306 V 194.292 l 17.73972,0.007 c 1.57282,-2.57319 4.36555,-4.14853 7.3815,-4.14553 3.01595,0.003 5.81276,1.57595 7.3385,4.14553 h 17.227 c 4.02296,-17.22698 20.4609,-16.45385 20.4609,-16.45385 l 1.98406,-73.87465 c -5.15998,-0.16486 -9.26515,-4.479443 -9.1286,-9.640253 0.13655,-5.160813 4.47186,-9.261415 9.63334,-9.153175 l 0.88619,-32.996495 z" /></g></g></svg>
