<?xml version="1.0" encoding="UTF-8" standalone="no"?>
<!-- Created with Inkscape (http://www.inkscape.org/) -->

<svg
   width="210mm"
   height="297mm"
   viewBox="0 0 210 297"
   version="1.1"
   id="svg1"
   xml:space="preserve"
   inkscape:version="1.4 (86a8ad7, 2024-10-11)"
   sodipodi:docname="16_La_Gacela_11-02-1934.svg"
   inkscape:export-filename="..\pdf\16_La_Gacela_11-02-1934.pdf"
   inkscape:export-xdpi="96"
   inkscape:export-ydpi="96"
   xmlns:inkscape="http://www.inkscape.org/namespaces/inkscape"
   xmlns:sodipodi="http://sodipodi.sourceforge.net/DTD/sodipodi-0.dtd"
   xmlns="http://www.w3.org/2000/svg"
   xmlns:svg="http://www.w3.org/2000/svg"><sodipodi:namedview
     id="namedview1"
     pagecolor="#ffffff"
     bordercolor="#000000"
     borderopacity="0.25"
     inkscape:showpageshadow="2"
     inkscape:pageopacity="0.0"
     inkscape:pagecheckerboard="0"
     inkscape:deskcolor="#d1d1d1"
     inkscape:document-units="mm"
     inkscape:zoom="0.25669573"
     inkscape:cx="-346.71398"
     inkscape:cy="1081.0464"
     inkscape:window-width="1920"
     inkscape:window-height="1017"
     inkscape:window-x="-8"
     inkscape:window-y="-8"
     inkscape:window-maximized="1"
     inkscape:current-layer="layer1" /><defs
     id="defs1" /><g
     inkscape:label="Camada 1"
     inkscape:groupmode="layer"
     id="layer1"><g
       id="g27"
       transform="translate(-1.2565411,11.928619)"><path
         id="path25"
         style="fill:none;stroke:#000000;stroke-width:0.2;stroke-dashoffset:1.17165"
         d="m 159.43251,141.22374 h -10.20368 l 21.11904,39.50717 14.02453,-10.57507 20.33055,26.96213 -84.81104,63.95102 -20.330548,-26.96213 66.313788,-50.00333 -11.04555,-20.66278 c -18.74636,-3.34986 -20.9311,-19.82231 -20.9311,-19.82231 l -50.151896,7.83406 -52.315623,-9.59103 13.403015,3.31771 c 1.794654,0.49221 3.108687,2.02766 3.317745,3.87681 0.209056,1.84915 -0.729006,3.63922 -2.368472,4.51967 -1.639466,0.88046 -3.649842,0.67381 -5.07591,-0.52176 l -9.595243,-8.82372 -23.1239786,-7.6588 23.1239786,-7.6588 9.595243,-8.82372 c 1.426068,-1.19557 3.436444,-1.40222 5.07591,-0.52176 1.639466,0.88045 2.577528,2.67052 2.368472,4.51967 -0.209058,1.84915 -1.523091,3.3846 -3.317745,3.87681 l -13.403015,3.31771 52.315623,-9.59103 50.151896,7.83406 c 0,0 2.18474,-16.47245 20.9311,-19.82231 L 165.87515,89.039232 99.561362,39.035902 119.89191,12.073772 204.70295,76.02479 184.3724,102.98692 170.34787,92.41185 149.22883,131.91902 h 10.20368 z m -128.001529,0.63773 52.315623,2.62877 -52.315623,-5.88575 m 0,-7.3232 52.315623,-2.62877 -52.315623,5.88575" /><path
         style="fill:none;stroke:#000000;stroke-width:0.2;stroke-dasharray:0.6, 0.4, 0.2, 0.4;stroke-dashoffset:0"
         d="m 170.34787,92.41185 -4.47272,-3.372617"
         id="path18" /><path
         style="fill:none;stroke:#000000;stroke-width:0.2;stroke-dasharray:0.6, 0.4, 0.2, 0.4;stroke-dashoffset:0"
         d="m 133.8985,129.52432 h 16.61044"
         id="path16" /><path
         style="fill:none;stroke:#000000;stroke-width:0.2;stroke-dasharray:0.600001, 0.4, 0.2, 0.4;stroke-dashoffset:0"
         d="m 68.678816,129.40965 v -4.95701"
         id="path17" /><circle
         style="fill:#000000;fill-opacity:1;stroke:none;stroke-width:0.226406;stroke-dasharray:none;stroke-dashoffset:0"
         id="path20"
         cx="24.610403"
         cy="134.2049"
         r="1.7087104" /><path
         style="fill:none;stroke:#000000;stroke-width:0.2;stroke-dasharray:0.6, 0.6;stroke-dashoffset:0"
         d="M 83.746604,144.49024 V 128.65252"
         id="path21"
         sodipodi:nodetypes="cc" /><path
         style="fill:none;stroke:#000000;stroke-width:0.2;stroke-dasharray:0.6, 0.4, 0.2, 0.4;stroke-dashoffset:0"
         d="m 31.430981,138.60449 v -4.06622"
         id="path23"
         sodipodi:nodetypes="cc" /><path
         style="fill:none;stroke:#000000;stroke-width:0.2;stroke-dasharray:0.6, 0.4, 0.2, 0.4;stroke-dashoffset:0"
         d="m 170.34787,180.73091 -4.47272,3.37262"
         id="path24" /><path
         style="fill:none;stroke:#000000;stroke-width:0.2;stroke-dasharray:0.6, 0.4, 0.2, 0.4;stroke-dashoffset:0"
         d="m 133.8985,143.61844 h 16.61044"
         id="path26" /><path
         style="fill:none;stroke:#000000;stroke-width:0.2;stroke-dasharray:0.600001, 0.4, 0.2, 0.4;stroke-dashoffset:0"
         d="m 68.678816,143.73311 v 4.95701"
         id="path27" /><circle
         style="fill:#000000;fill-opacity:1;stroke:none;stroke-width:0.226406;stroke-dasharray:none;stroke-dashoffset:0"
         id="circle27"
         cx="24.610403"
         cy="-138.93787"
         r="1.7087104"
         transform="scale(1,-1)" /></g></g></svg>
