<?xml version="1.0" encoding="UTF-8" standalone="no"?>
<!-- Created with Inkscape (http://www.inkscape.org/) -->

<svg
   width="210mm"
   height="297mm"
   viewBox="0 0 210 297"
   version="1.1"
   id="svg5"
   xml:space="preserve"
   sodipodi:docname="21_El_Mono_18-03-1934.svg"
   inkscape:version="1.4 (86a8ad7, 2024-10-11)"
   xmlns:inkscape="http://www.inkscape.org/namespaces/inkscape"
   xmlns:sodipodi="http://sodipodi.sourceforge.net/DTD/sodipodi-0.dtd"
   xmlns="http://www.w3.org/2000/svg"
   xmlns:svg="http://www.w3.org/2000/svg"><sodipodi:namedview
     id="namedview7"
     pagecolor="#ffffff"
     bordercolor="#999999"
     borderopacity="1"
     inkscape:showpageshadow="0"
     inkscape:pageopacity="0"
     inkscape:pagecheckerboard="0"
     inkscape:deskcolor="#d1d1d1"
     inkscape:document-units="mm"
     showgrid="false"
     inkscape:zoom="2"
     inkscape:cx="408.5"
     inkscape:cy="636.25"
     inkscape:window-width="1920"
     inkscape:window-height="1017"
     inkscape:window-x="-8"
     inkscape:window-y="-8"
     inkscape:window-maximized="1"
     inkscape:current-layer="g2902" /><defs
     id="defs2" /><g
     inkscape:label="Camada 1"
     inkscape:groupmode="layer"
     id="layer1"><g
       id="g2856"><g
         id="g2902"
         transform="translate(-2.1168513,-13.649667)"><path
           style="fill:none;stroke:#000000;stroke-width:0.2;stroke-linecap:butt;stroke-linejoin:miter;stroke-dasharray:0.6, 0.6;stroke-dashoffset:0;stroke-opacity:1"
           d="m 82.92517,183.28907 h 20.8778"
           id="path1899"
           sodipodi:nodetypes="cc" /><path
           style="fill:none;stroke:#000000;stroke-width:0.2;stroke-linecap:butt;stroke-linejoin:miter;stroke-dasharray:none;stroke-opacity:1"
           d="m 103.80297,190.77027 v -7.4812"
           id="path1901" /><path
           style="fill:none;stroke:#000000;stroke-width:0.2;stroke-linecap:butt;stroke-linejoin:miter;stroke-dasharray:0.6, 0.6;stroke-dashoffset:0;stroke-opacity:1"
           d="m 99.583585,173.50362 v 9.78545"
           id="path1903" /><path
           style="fill:none;stroke:#000000;stroke-width:0.2;stroke-linecap:butt;stroke-linejoin:miter;stroke-dasharray:none;stroke-opacity:1"
           d="m 99.583583,183.28907 v 7.43673"
           id="path1905" /><path
           style="fill:none;stroke:#000000;stroke-width:0.2;stroke-linecap:butt;stroke-linejoin:miter;stroke-dasharray:0.6, 0.6;stroke-dashoffset:0;stroke-opacity:1"
           d="m 87.253555,124.37122 v 7.80934"
           id="path1918" /><path
           style="fill:none;stroke:#000000;stroke-width:0.2;stroke-linecap:butt;stroke-linejoin:miter;stroke-dasharray:0.6, 0.6;stroke-dashoffset:0;stroke-opacity:1"
           d="m 61.849034,124.37122 v 7.80934"
           id="path1920" /><path
           style="fill:none;stroke:#000000;stroke-width:0.2;stroke-linecap:butt;stroke-linejoin:miter;stroke-dasharray:0.60000001,0.40000001,0.2,0.40000001;stroke-dashoffset:0;stroke-opacity:1"
           d="m 32.733919,124.37122 v 7.80934"
           id="path1922" /><path
           id="path1926"
           style="fill:none;stroke:#000000;stroke-width:0.2;stroke-linecap:butt;stroke-linejoin:miter;stroke-dasharray:none;stroke-opacity:1"
           d="M 110.43074,290.92901 V 190.77027 h 37.53673 v 5.98775 h 18.36322 v -2.92747 h -12.68553 v -3.06028 h 19.25153 v -7.4812 h -41.58816 c 0.25466,-0.89129 1.88359,-4.47472 6.96237,-15.87035 3.33295,-7.47838 -3.06553,-13.27281 -9.27127,-13.22451 -3.25062,0.0253 -6.4486,1.65392 -8.16694,5.48338 -4.99882,11.14024 -6.18257,13.82603 -6.18257,13.82603 v -41.32306 h 91.15619 v -7.80934 H 186.55633 V 121.621 h 12.15326 v -2.3952 h -17.2098 v 5.14542 h -66.84967 v -15.9799 c 1.61409,3.01083 5.06659,4.54114 8.3814,3.71502 3.32412,-0.82879 5.6569,-3.81451 5.65702,-7.24039 1.2e-4,-3.42607 -2.33272,-6.412062 -5.65702,-7.240901 -3.31493,-0.826033 -6.76747,0.7045 -8.3814,3.715531 V 33.37109 c -5.19469,0.01876 -9.85185,0.03984 -15.066534,0 v 67.96949 c -1.613933,-3.011031 -5.066472,-4.541564 -8.381401,-3.715531 -3.3243,0.828839 -5.657135,3.814831 -5.657019,7.240901 1.19e-4,3.42588 2.332904,6.4116 5.657019,7.24039 3.314807,0.82612 6.767307,-0.70419 8.381401,-3.71502 v 15.9799 H 32.733919 V 119.2258 H 15.524117 v 2.3952 H 27.67738 v 2.75022 H 8.4273926 v 7.80934 H 99.583586 v 41.32306 c 0,0 -1.183749,-2.68579 -6.182569,-13.82603 -1.718344,-3.82946 -4.916319,-5.45808 -8.166943,-5.48338 -6.205738,-0.0483 -12.604221,5.74613 -9.271269,13.22451 5.078784,11.39563 6.707713,14.97906 6.962366,15.87035 H 41.337012 v 7.4812 H 60.58855 v 3.06028 H 47.903019 v 2.92747 h 18.36322 v -5.98775 h 37.536731 v 100.15874 c 2.20926,0 4.41851,0 6.62777,0 z"
           sodipodi:nodetypes="cccccccccccssscccccccccccccsccccccscccccccccccccssscccccccccccc" /><path
           style="fill:none;stroke:#000000;stroke-width:0.2;stroke-linecap:butt;stroke-linejoin:miter;stroke-dasharray:0.6, 0.6;stroke-dashoffset:0;stroke-opacity:1"
           d="m 131.30854,183.28907 h -20.8778"
           id="path1928"
           sodipodi:nodetypes="cc" /><path
           style="fill:none;stroke:#000000;stroke-width:0.2;stroke-linecap:butt;stroke-linejoin:miter;stroke-dasharray:none;stroke-opacity:1"
           d="m 110.43074,190.77027 v -7.4812"
           id="path1930" /><path
           style="fill:none;stroke:#000000;stroke-width:0.2;stroke-linecap:butt;stroke-linejoin:miter;stroke-dasharray:0.6, 0.6;stroke-dashoffset:0;stroke-opacity:1"
           d="m 114.65012,173.50362 v 9.78545"
           id="path1932" /><path
           style="fill:none;stroke:#000000;stroke-width:0.2;stroke-linecap:butt;stroke-linejoin:miter;stroke-dasharray:none;stroke-opacity:1"
           d="m 114.65012,183.28907 v 7.43673"
           id="path1934" /><path
           style="fill:none;stroke:#000000;stroke-width:0.2;stroke-linecap:butt;stroke-linejoin:miter;stroke-dasharray:0.6, 0.6;stroke-dashoffset:0;stroke-opacity:1"
           d="m 126.98015,124.37122 v 7.80934"
           id="path1936" /><path
           style="fill:none;stroke:#000000;stroke-width:0.2;stroke-linecap:butt;stroke-linejoin:miter;stroke-dasharray:0.6, 0.6;stroke-dashoffset:0;stroke-opacity:1"
           d="m 152.38467,124.37122 v 7.80934"
           id="path1938" /><path
           style="fill:none;stroke:#000000;stroke-width:0.2;stroke-linecap:butt;stroke-linejoin:miter;stroke-dasharray:0.60000001,0.40000001,0.2,0.40000001;stroke-dashoffset:0;stroke-opacity:1"
           d="m 181.49979,124.37122 v 7.80934"
           id="path1940" /><path
           style="fill:none;stroke:#000000;stroke-width:0.2;stroke-linecap:butt;stroke-linejoin:miter;stroke-dasharray:0.60000001,0.40000001,0.2,0.40000001;stroke-dashoffset:0;stroke-opacity:1"
           d="M 99.583585,124.37122 H 114.65012"
           id="path1944" /><path
           style="fill:none;stroke:#000000;stroke-width:0.2;stroke-linecap:butt;stroke-linejoin:miter;stroke-dasharray:0.6, 0.6;stroke-dashoffset:0;stroke-opacity:1"
           d="M 99.583583,143.57181 H 114.65012"
           id="path1946" /><path
           style="fill:none;stroke:#000000;stroke-width:0.2;stroke-linecap:butt;stroke-linejoin:miter;stroke-dasharray:0.6, 0.6;stroke-dashoffset:0;stroke-opacity:1"
           d="M 99.583585,95.701126 H 114.65012"
           id="path1948" /><path
           style="fill:#000000;fill-opacity:1;stroke:none;stroke-width:0.2;stroke-linecap:butt;stroke-linejoin:miter;stroke-dasharray:none;stroke-opacity:1"
           d="m 99.583586,93.275367 4.887244,-27.850882 h 5.29205 l 4.88724,27.850882 z"
           id="path1924"
           sodipodi:nodetypes="ccccc" /><g
           id="g2784"
           transform="translate(-0.19967532)"><circle
             style="fill:#ffffff;fill-opacity:1;stroke:none;stroke-width:0.2;stroke-dasharray:0.600001, 0.600001;stroke-dashoffset:0;stroke-opacity:1"
             id="path2027"
             cx="104.5"
             cy="84.141121"
             r="1.2862904" /><circle
             style="fill:#ffffff;fill-opacity:1;stroke:none;stroke-width:0.2;stroke-dasharray:0.600001, 0.600001;stroke-dashoffset:0;stroke-opacity:1"
             id="circle2393"
             cx="110.13306"
             cy="84.141121"
             r="1.2862904" /></g><path
           id="circle2395"
           style="color:#000000;fill:#ffffff"
           d="m 113.3323,85.680234 c -0.65789,1.005134 -1.73164,1.68624 -2.92314,1.843106 -1.19643,0.157513 -2.40017,-0.217784 -3.29696,-1.025261 l -0.001,10e-4 -10e-4,-10e-4 c -0.89678,0.807479 -2.10052,1.182776 -3.29695,1.025261 -1.18512,-0.156025 -2.25363,-0.830929 -2.91229,-1.827086 l -0.35347,2.01228 c 0.84566,0.748635 1.91495,1.250404 3.05699,1.400756 1.22017,0.16064 2.44846,-0.07857 3.50779,-0.661459 1.05872,0.582801 2.28562,0.822086 3.50573,0.661459 1.14707,-0.151016 2.22069,-0.656859 3.06835,-1.411091 z"
           sodipodi:nodetypes="cscccsccscscc" /><path
           style="fill:none;stroke:#ffffff;stroke-width:1.6;stroke-linecap:butt;stroke-linejoin:miter;stroke-dasharray:none;stroke-opacity:1"
           d="m 105.54891,75.181451 h 3.13589"
           id="path2763" /><path
           style="color:#000000;fill:#ffffff;-inkscape-stroke:none"
           d="m 103.91779,68.474609 -0.17548,1 h 6.74909 l -0.18772,-1 z"
           id="path2765"
           sodipodi:nodetypes="ccccc" /></g></g></g></svg>
