<?xml version="1.0" encoding="UTF-8" standalone="no"?>
<!-- Created with Inkscape (http://www.inkscape.org/) -->

<svg
   width="210mm"
   height="297mm"
   viewBox="0 0 210 297"
   version="1.1"
   id="svg5"
   xml:space="preserve"
   inkscape:version="1.2.1 (9c6d41e410, 2022-07-14)"
   sodipodi:docname="35_El_Cuervo_05-05-1935.svg"
   xmlns:inkscape="http://www.inkscape.org/namespaces/inkscape"
   xmlns:sodipodi="http://sodipodi.sourceforge.net/DTD/sodipodi-0.dtd"
   xmlns="http://www.w3.org/2000/svg"
   xmlns:svg="http://www.w3.org/2000/svg"><sodipodi:namedview
     id="namedview7"
     pagecolor="#ffffff"
     bordercolor="#999999"
     borderopacity="1"
     inkscape:showpageshadow="0"
     inkscape:pageopacity="0"
     inkscape:pagecheckerboard="0"
     inkscape:deskcolor="#d1d1d1"
     inkscape:document-units="mm"
     showgrid="false"
     inkscape:zoom="0.37282197"
     inkscape:cx="147.52349"
     inkscape:cy="906.59893"
     inkscape:window-width="1920"
     inkscape:window-height="1017"
     inkscape:window-x="-8"
     inkscape:window-y="-8"
     inkscape:window-maximized="1"
     inkscape:current-layer="layer1" /><defs
     id="defs2" /><g
     inkscape:label="Camada 1"
     inkscape:groupmode="layer"
     id="layer1"><g
       id="g3925"
       transform="translate(1.625551,5.454949)"><path
         id="path1787"
         style="fill:none;stroke:#000000;stroke-width:0.2;stroke-linejoin:miter;stroke-miterlimit:5.3;stroke-dasharray:none"
         d="M 91.142623,109.06694 71.411694,99.092663 c 0,0 -3.829885,3.812027 -7.245178,9.969397" /><path
         id="path1785"
         style="fill:#000000;fill-opacity:1;stroke:#000000;stroke-width:0.2;stroke-linejoin:miter;stroke-miterlimit:5.3;stroke-dasharray:none"
         d="M 100.9618,37.440092 C 92.459389,62.362877 76.778259,53.846842 76.778259,53.846842 L 97.137223,73.540214 68.306425,96.205497 92.435701,108.4032 v 0.66353 h -1.292944 l -26.977681,-0.002 c -2.904263,5.23604 -5.509979,12.17165 -5.20175,19.90214 0.581204,14.57682 3.916108,24.27539 17.643884,37.00911 6.888275,6.38949 11.52215,19.57765 12.32793,29.88345 0.792238,10.1326 3.500561,17.28783 3.500561,17.28783 v 35.50275 c 7.29258,0 14.585159,0 21.877739,0 v -35.50275 c 0,0 2.70832,-7.15523 3.50056,-17.28783 0.80578,-10.3058 5.43913,-23.49396 12.32741,-29.88345 13.72778,-12.73372 17.06268,-22.43229 17.64388,-37.00911 0.30823,-7.73049 -2.29749,-14.6661 -5.20175,-19.90214 l -26.97716,0.002 h -1.29294 V 108.4032 L 138.4422,96.205497 109.61191,73.540214 129.97088,53.846842 c 0,0 -15.68164,8.516035 -24.18406,-16.40675 z"
         sodipodi:nodetypes="ccccccccsssccccsssccccccccc" /><path
         style="fill:none;stroke:#f7f7f7;stroke-width:0.2;stroke-linejoin:miter;stroke-miterlimit:5.3;stroke-dasharray:none;stroke-opacity:1"
         d="m 92.435483,173.25785 v 39.88922"
         id="path1773" /><path
         style="fill:none;stroke:#f8f8f8;stroke-width:0.2;stroke-linejoin:miter;stroke-miterlimit:5.3;stroke-dasharray:0.6, 0.6;stroke-dashoffset:0;stroke-opacity:1"
         d="m 92.435483,109.06694 v 64.19091"
         id="path1783" /><path
         style="fill:none;stroke:#000000;stroke-width:0.2;stroke-miterlimit:5.3"
         d="m 35.483871,141.21261 v 32.22266 H 11.354838 v -68.22559 h 24.129033 v 26.12892"
         id="path1851" /><path
         style="fill:none;stroke:#000000;stroke-width:0.2;stroke-miterlimit:5.3;stroke-dasharray:0.6, 0.6;stroke-dashoffset:0"
         d="m 35.483871,131.3386 v 9.87401"
         id="rect1842" /><path
         style="fill:none;stroke:#000000;stroke-width:0.2;stroke-linejoin:miter;stroke-miterlimit:5.3;stroke-dasharray:none"
         d="m 35.483871,131.3386 19.276986,9.35854 4.988539,-3.21434"
         id="path1845" /><path
         style="fill:none;stroke:#000000;stroke-width:0.2;stroke-linejoin:miter;stroke-miterlimit:5.3;stroke-dasharray:none"
         d="m 35.483871,141.21261 19.276986,9.35854 7.180216,-4.62654"
         id="path1847"
         sodipodi:nodetypes="ccc" /><path
         style="fill:none;stroke:#000000;stroke-width:0.2;stroke-linejoin:miter;stroke-miterlimit:5.3;stroke-dasharray:none;stroke-dashoffset:0"
         d="M 97.137092,73.540323 74.693549,65.37903 c 0,0 -0.269859,0.886678 -0.931453,3.060486 12.026192,12.385764 0.349274,23.202566 0.349274,23.202566"
         id="path1853"
         sodipodi:nodetypes="cccc" /><path
         style="fill:none;stroke:#f8f8f8;stroke-width:0.2;stroke-linejoin:miter;stroke-miterlimit:5.3;stroke-dasharray:0.600001, 0.600001;stroke-dashoffset:0;stroke-opacity:1"
         d="M 97.137092,73.540323 92.435483,108.40322"
         id="path1918" /><circle
         style="fill:#ffffff;fill-opacity:1;stroke:none;stroke-width:0.2;stroke-linejoin:miter;stroke-miterlimit:5.3;stroke-dasharray:0.600001, 0.600001;stroke-dashoffset:0;stroke-opacity:1"
         id="path1972"
         cx="93.118546"
         cy="57.834492"
         r="2.3" /><path
         id="path2234"
         style="fill:none;stroke:#000000;stroke-width:0.2;stroke-linejoin:miter;stroke-miterlimit:5.3;stroke-dasharray:none"
         d="m 115.60628,109.06694 19.73093,-9.974277 c 0,0 3.82988,3.812027 7.24517,9.969397" /><path
         style="fill:none;stroke:#f7f7f7;stroke-width:0.2;stroke-linejoin:miter;stroke-miterlimit:5.3;stroke-dasharray:none;stroke-opacity:1"
         d="m 114.31342,173.25785 v 39.88922"
         id="path2238" /><path
         style="fill:none;stroke:#f8f8f8;stroke-width:0.2;stroke-linejoin:miter;stroke-miterlimit:5.3;stroke-dasharray:0.6, 0.6;stroke-dashoffset:0;stroke-opacity:1"
         d="m 114.31342,109.06694 v 64.19091"
         id="path2240" /><path
         style="fill:none;stroke:#000000;stroke-width:0.2;stroke-miterlimit:5.3"
         d="m 171.26503,141.21261 v 32.22266 h 24.12903 v -68.22559 h -24.12903 v 26.12892"
         id="path2242" /><path
         style="fill:none;stroke:#000000;stroke-width:0.2;stroke-miterlimit:5.3;stroke-dasharray:0.6, 0.6;stroke-dashoffset:0"
         d="m 171.26503,131.3386 v 9.87401"
         id="path2244" /><path
         style="fill:none;stroke:#000000;stroke-width:0.2;stroke-linejoin:miter;stroke-miterlimit:5.3;stroke-dasharray:none"
         d="m 171.26503,131.3386 -19.27699,9.35854 -4.98854,-3.21434"
         id="path2246" /><path
         style="fill:none;stroke:#000000;stroke-width:0.2;stroke-linejoin:miter;stroke-miterlimit:5.3;stroke-dasharray:none"
         d="m 171.26503,141.21261 -19.27699,9.35854 -7.18021,-4.62654"
         id="path2248"
         sodipodi:nodetypes="ccc" /><path
         style="fill:none;stroke:#000000;stroke-width:0.2;stroke-linejoin:miter;stroke-miterlimit:5.3;stroke-dasharray:none;stroke-dashoffset:0"
         d="m 109.61181,73.540323 22.44354,-8.161293 c 0,0 0.26986,0.886678 0.93145,3.060486 -12.02619,12.385764 -0.34927,23.202566 -0.34927,23.202566"
         id="path2250"
         sodipodi:nodetypes="cccc" /><path
         style="fill:none;stroke:#f8f8f8;stroke-width:0.2;stroke-linejoin:miter;stroke-miterlimit:5.3;stroke-dasharray:0.600001, 0.600001;stroke-dashoffset:0;stroke-opacity:1"
         d="m 109.61181,73.540323 4.70161,34.862897"
         id="path2252" /><circle
         style="fill:#ffffff;fill-opacity:1;stroke:none;stroke-width:0.2;stroke-linejoin:miter;stroke-miterlimit:5.3;stroke-dasharray:0.600001, 0.600001;stroke-dashoffset:0;stroke-opacity:1"
         id="circle2254"
         cx="-113.63036"
         cy="57.834492"
         r="2.3"
         transform="scale(-1,1)" /><path
         style="fill:none;fill-opacity:1;stroke:#ffffff;stroke-width:0.2;stroke-linejoin:miter;stroke-miterlimit:5.3;stroke-dasharray:0.600001, 0.600001;stroke-dashoffset:0;stroke-opacity:1"
         d="M 97.137092,73.540323 H 109.61181"
         id="path2982" /><path
         style="fill:none;fill-opacity:1;stroke:#ffffff;stroke-width:0.2;stroke-linejoin:miter;stroke-miterlimit:5.3;stroke-dasharray:0.600001, 0.600001;stroke-dashoffset:0;stroke-opacity:1"
         d="M 92.435483,108.75329 H 114.31342"
         id="path3899" /></g></g></svg>
