<?xml version="1.0" encoding="UTF-8" standalone="no"?>
<!-- Created with Inkscape (http://www.inkscape.org/) -->

<svg
   width="210mm"
   height="297mm"
   viewBox="0 0 210 297"
   version="1.1"
   id="svg1"
   xml:space="preserve"
   sodipodi:docname="42_El_Cisne_03-05-1936.svg"
   inkscape:version="1.4 (86a8ad7, 2024-10-11)"
   inkscape:export-filename="..\pdf\42_El_Cisne_03-05-1936.pdf"
   inkscape:export-xdpi="96"
   inkscape:export-ydpi="96"
   xmlns:inkscape="http://www.inkscape.org/namespaces/inkscape"
   xmlns:sodipodi="http://sodipodi.sourceforge.net/DTD/sodipodi-0.dtd"
   xmlns="http://www.w3.org/2000/svg"
   xmlns:svg="http://www.w3.org/2000/svg"><sodipodi:namedview
     id="namedview1"
     pagecolor="#ffffff"
     bordercolor="#000000"
     borderopacity="0.25"
     inkscape:showpageshadow="2"
     inkscape:pageopacity="0.0"
     inkscape:pagecheckerboard="0"
     inkscape:deskcolor="#d1d1d1"
     inkscape:document-units="mm"
     inkscape:zoom="0.5"
     inkscape:cx="242"
     inkscape:cy="491"
     inkscape:window-width="1920"
     inkscape:window-height="1017"
     inkscape:window-x="-8"
     inkscape:window-y="-8"
     inkscape:window-maximized="1"
     inkscape:current-layer="layer1" /><defs
     id="defs1" /><g
     inkscape:label="Camada 1"
     inkscape:groupmode="layer"
     id="layer1"><g
       id="g36"
       transform="translate(2.7255004,-2.5923561)"><path
         style="fill:#cccccc;fill-opacity:0.5;stroke:none;stroke-width:0.2;stroke-linejoin:bevel;stroke-dasharray:0.600001, 0.4, 0.2, 0.4"
         d="m 114.56365,248.87125 18.40019,18.08714 -11.91651,11.91651 -18.24366,-18.24368 11.75998,-11.75997"
         id="path2"
         sodipodi:nodetypes="ccccc" /><rect
         style="fill:#cccccc;fill-opacity:0.5;stroke:none;stroke-width:0.2;stroke-dasharray:0.600001, 0.4, 0.2, 0.4"
         id="rect2"
         width="18.400188"
         height="24.60862"
         x="114.56364"
         y="142.49806" /><rect
         style="fill:#cccccc;stroke:none;stroke-width:0.2;stroke-dasharray:0.600001, 0.4, 0.2, 0.4;fill-opacity:0.5"
         id="rect1"
         width="18.400188"
         height="24.60862"
         x="71.585159"
         y="142.49806" /><path
         style="fill:none;stroke:#000000;stroke-width:0.2;stroke-dasharray:none;stroke-opacity:1"
         d="M 114.56365,248.87125 H 102.2745 m 0,0 H 89.98535 m 24.5783,-99.57409 v -6.7991 h 18.40019 v 24.60862 c 46.44516,2.91802 66.93495,58.35569 30.29505,89.07859 l -6.5239,-5.97839 -0.005,-34.98257 -3.8317,-3.51237 7e-5,34.97912 -6.28557,-5.75999 v -34.98075 l -3.6046,-3.30415 v 34.98171 l -6.44285,-5.90411 v -34.98341 l -3.60095,-3.30047 -5.5e-4,73.5185 -11.91651,11.91651 -18.24366,-18.24368 11.75998,-11.75997 m -24.5783,0 17.05165,17.58081 -17.979086,17.97908 -17.472754,-17.47275 -5.5e-4,-73.5185 -3.60095,3.30047 v 34.98341 l -6.44285,5.90411 v -34.98171 l -3.6046,3.30415 v 34.98075 l -6.28557,5.75999 7e-5,-34.97912 -3.8317,3.51237 -0.005,34.98257 -6.5239,5.97839 C 4.650208,225.46237 25.14,170.0247 71.58516,167.10668 v -24.60862 h 18.40019 v 6.7991"
         id="path27"
         sodipodi:nodetypes="cccccccccccccccccccccccccccccccccccccccccccc" /><circle
         style="fill:#000000;fill-opacity:1;stroke:none;stroke-width:0.2;stroke-dasharray:none;stroke-opacity:1"
         id="path11"
         cx="111.32944"
         cy="44.868866"
         r="2.1268511" /><path
         style="fill:none;stroke:#000000;stroke-width:0.2;stroke-dasharray:0.6, 0.4, 0.2, 0.4;stroke-dashoffset:0;stroke-opacity:1"
         d="M 107.45751,54.161501 106.26177,17.446472"
         id="path12" /><path
         style="fill:none;fill-opacity:1;stroke:#000000;stroke-width:0.2;stroke-dasharray:0.60000001,0.40000001,0.2,0.40000001;stroke-dashoffset:0;stroke-opacity:1"
         d="M 132.96384,167.10668 H 102.2745 71.58516"
         id="path14"
         sodipodi:nodetypes="ccc" /><path
         style="fill:none;fill-opacity:1;stroke:#000000;stroke-width:0.2;stroke-dasharray:0.60000001,0.40000001,0.2,0.40000001;stroke-dashoffset:0;stroke-opacity:1"
         d="m 114.56365,167.10668 v 81.76457"
         id="path15" /><path
         id="path13"
         style="fill:#000000;fill-opacity:1;stroke:none;stroke-width:0.2;stroke-dasharray:none;stroke-opacity:1"
         d="m 93.495068,34.471798 c -0.629331,-0.0027 -1.325727,0.06447 -2.086694,0.233577 0,0 -3.189061,0.513782 -5.701461,3.219442 4.21954,5.862262 8.876461,0.115238 8.876461,0.115238 0,0 1.326244,5.334145 7.691226,5.334126 6.36499,-1.9e-5 7.6913,-5.334126 7.6913,-5.334126 0,0 4.6564,5.747024 8.87594,-0.115238 -2.5124,-2.70566 -5.70094,-3.219442 -5.70094,-3.219442 -4.05849,-0.901887 -6.28127,1.098641 -6.28127,1.098641 0,0 -2.01999,-0.445806 -4.58501,-0.445811 -2.565025,-5e-6 -4.585492,0.445811 -4.585492,0.445811 0,0 -1.466958,-1.320689 -4.19406,-1.332218 z"
         sodipodi:nodetypes="sccccccccccs" /><path
         style="fill:none;fill-opacity:1;stroke:#000000;stroke-width:0.2;stroke-dasharray:0.6, 0.4, 0.2, 0.4;stroke-dashoffset:0;stroke-opacity:1"
         d="m 114.56365,248.87125 18.40019,18.08714"
         id="path18"
         sodipodi:nodetypes="cc" /><path
         style="fill:none;fill-opacity:1;stroke:#ffffff;stroke-width:0.2;stroke-dasharray:0.6, 0.4, 0.2, 0.4;stroke-dashoffset:0;stroke-opacity:1"
         d="m 106.85964,35.803985 0.21715,6.667458"
         id="path28" /><path
         style="fill:none;stroke:#000000;stroke-width:0.2;stroke-dasharray:none;stroke-opacity:1"
         d="m 89.98535,167.10668 v -18.60327 h 3.30253 l 3.80361,-94.341909 c -3.54944,2.281793 -12.39513,0.696557 -13.84785,-7.470549 -1.45272,-8.167106 5.72471,-11.663639 8.10827,-11.889111 l 2.91534,-17.355369 h 8.00725 8.00725 l 2.91534,17.355369 c 2.38356,0.225472 9.56099,3.722005 8.10827,11.889111 -1.45272,8.167106 -10.29841,9.752342 -13.84785,7.470549 l 3.80361,94.341909 h 3.30253 v 18.60327"
         id="path29"
         sodipodi:nodetypes="cccczccccczcccc" /><circle
         style="fill:#000000;fill-opacity:1;stroke:none;stroke-width:0.2;stroke-dasharray:none;stroke-opacity:1"
         id="circle30"
         cx="-93.219574"
         cy="44.868866"
         r="2.1268511"
         transform="scale(-1,1)" /><path
         style="fill:none;stroke:#000000;stroke-width:0.2;stroke-dasharray:0.6, 0.4, 0.2, 0.4;stroke-dashoffset:0;stroke-opacity:1"
         d="M 97.09149,54.161501 98.28723,17.446472"
         id="path31" /><path
         style="fill:none;fill-opacity:1;stroke:#000000;stroke-width:0.2;stroke-dasharray:0.60000001,0.40000001,0.2,0.40000001;stroke-dashoffset:0;stroke-opacity:1"
         d="m 89.98535,167.10668 v 81.76457"
         id="path34" /><path
         style="fill:none;fill-opacity:1;stroke:#000000;stroke-width:0.2;stroke-dasharray:0.6, 0.4, 0.2, 0.4;stroke-dashoffset:0;stroke-opacity:1"
         d="M 89.98535,248.87125 71.58516,266.95839"
         id="path35"
         sodipodi:nodetypes="cc" /><path
         style="fill:none;fill-opacity:1;stroke:#ffffff;stroke-width:0.2;stroke-dasharray:0.6, 0.4, 0.2, 0.4;stroke-dashoffset:0;stroke-opacity:1"
         d="m 97.68936,35.803985 -0.21715,6.667458"
         id="path36" /></g></g></svg>
