<?xml version="1.0" encoding="UTF-8" standalone="no"?>
<!-- Created with Inkscape (http://www.inkscape.org/) -->

<svg
   width="210mm"
   height="297mm"
   viewBox="0 0 210 297"
   version="1.1"
   id="svg5"
   xml:space="preserve"
   inkscape:version="1.2.1 (9c6d41e410, 2022-07-14)"
   sodipodi:docname="15_El_Cerdo_04-02-1934.svg"
   xmlns:inkscape="http://www.inkscape.org/namespaces/inkscape"
   xmlns:sodipodi="http://sodipodi.sourceforge.net/DTD/sodipodi-0.dtd"
   xmlns="http://www.w3.org/2000/svg"
   xmlns:svg="http://www.w3.org/2000/svg"><sodipodi:namedview
     id="namedview7"
     pagecolor="#ffffff"
     bordercolor="#999999"
     borderopacity="1"
     inkscape:showpageshadow="0"
     inkscape:pageopacity="0"
     inkscape:pagecheckerboard="0"
     inkscape:deskcolor="#d1d1d1"
     inkscape:document-units="mm"
     showgrid="false"
     inkscape:zoom="0.67024358"
     inkscape:cx="-222.30724"
     inkscape:cy="499.81829"
     inkscape:window-width="1920"
     inkscape:window-height="1017"
     inkscape:window-x="-8"
     inkscape:window-y="-8"
     inkscape:window-maximized="1"
     inkscape:current-layer="g1613" /><defs
     id="defs2" /><g
     inkscape:label="Camada 1"
     inkscape:groupmode="layer"
     id="layer1"><g
       id="g1613"
       transform="translate(0,1.8977654)"><path
         style="fill:none;stroke:#000000;stroke-width:0.2;stroke-linejoin:round;stroke-dasharray:none"
         d="m 125.35716,113.50567 c 0,0 32.89521,-15.838965 56.51434,-27.110835 -5.75531,40.646145 -45.08786,37.350265 -45.08786,37.350265"
         id="path1143"
         sodipodi:nodetypes="ccc" /><path
         style="fill:none;stroke:#000000;stroke-width:0.2;stroke-linejoin:round;stroke-dasharray:0.6, 0.6;stroke-dashoffset:0"
         d="m 136.78364,123.7451 -3.60746,-14.0015"
         id="path1147" /><circle
         style="fill:#000000;fill-opacity:1;stroke:none;stroke-width:0.221691;stroke-linejoin:round;stroke-dasharray:0.665073, 0.665073;stroke-dashoffset:0"
         id="path1151"
         cx="129.97198"
         cy="90.474373"
         r="1.9877276" /><path
         style="fill:none;fill-opacity:1;stroke:#000000;stroke-width:0.2;stroke-linejoin:round;stroke-dasharray:none;stroke-dashoffset:0;stroke-opacity:1"
         id="path1546"
         sodipodi:type="arc"
         sodipodi:cx="129.97198"
         sodipodi:cy="90.474373"
         sodipodi:rx="4.1814184"
         sodipodi:ry="4.1795321"
         sodipodi:start="4.118977"
         sodipodi:end="0.99483767"
         sodipodi:arc-type="arc"
         d="m 127.63377,87.009384 a 4.1814184,4.1795321 0 0 1 4.19306,-0.280827 4.1814184,4.1795321 0 0 1 2.3195,3.502798 4.1814184,4.1795321 0 0 1 -1.89698,3.748268"
         sodipodi:open="true" /><path
         style="fill:none;fill-opacity:1;stroke:#000000;stroke-width:0.2;stroke-linejoin:round;stroke-dasharray:none;stroke-dashoffset:0;stroke-opacity:1"
         id="path1562"
         sodipodi:type="arc"
         sodipodi:cx="129.85294"
         sodipodi:cy="90.5326"
         sodipodi:rx="6.9377522"
         sodipodi:ry="6.9346223"
         sodipodi:start="4.118977"
         sodipodi:end="0.99483767"
         sodipodi:arc-type="arc"
         d="m 125.97339,84.783538 a 6.9377522,6.9346223 0 0 1 6.95708,-0.465944 6.9377522,6.9346223 0 0 1 3.84848,5.811794 6.9377522,6.9346223 0 0 1 -3.14744,6.219076"
         sodipodi:open="true" /><circle
         style="fill:#000000;fill-opacity:1;stroke:none;stroke-width:0.26803;stroke-linejoin:round;stroke-dasharray:0.80409, 0.80409;stroke-dashoffset:0"
         id="circle1564"
         cx="108.90527"
         cy="37.302719"
         r="2.4032133" /><path
         id="path1567"
         style="fill:none;stroke:#000000;stroke-width:0.2;stroke-linejoin:round"
         d="m 51.747633,97.666705 39.90131,-52.046415 8.27599,4.343207 v -4.832188 c -3.62622,-2.26591 -5.31287,-6.65978 -4.13426,-10.770097 1.17861,-4.110316 4.937367,-6.942741 9.209327,-6.94274 4.27196,-1e-6 8.03072,2.832424 9.20933,6.94274 1.17861,4.110317 -0.50804,8.504187 -4.13426,10.770097 v 4.832188 l 8.27599,-4.343207 39.90131,52.046415"
         sodipodi:nodetypes="ccccscscccc" /><path
         style="fill:none;stroke:#000000;stroke-width:0.2;stroke-linejoin:round;stroke-dasharray:none"
         d="m 84.642843,123.04467 c 0,0 -22.83922,-1.50035 -44.20582,13.70501 v 8.70815 h 18.98721 c 0,0 -29.00722,26.91951 0,57.50338 -7.16459,0.71381 -18.98721,0 -18.98721,0 v 9.31193 c 20.37415,13.59521 44.20582,13.77091 44.20582,13.77091 l 16.489057,-0.0522 3.8681,39.79424 3.8681,-39.7942 16.48906,0.0522 c 0,0 23.83167,-0.1757 44.20582,-13.77091 v -9.31193 c 0,0 -11.82262,0.71381 -18.98721,0 29.00722,-30.58387 0,-57.50338 0,-57.50338 h 18.98721 v -8.70815 c -21.3666,-15.20536 -44.20582,-13.70501 -44.20582,-13.70501"
         id="path1569"
         sodipodi:nodetypes="ccccccccccccccccccc" /><path
         style="fill:none;stroke:#000000;stroke-width:0.2;stroke-linejoin:round;stroke-dasharray:none"
         d="m 84.642843,113.50567 c 0,0 -32.89521,-15.838965 -56.51434,-27.110835 5.75531,40.646145 45.08786,37.350265 45.08786,37.350265"
         id="path1571"
         sodipodi:nodetypes="ccc" /><path
         style="fill:none;stroke:#000000;stroke-width:0.2;stroke-linejoin:round;stroke-dasharray:0.6, 0.6;stroke-dashoffset:0"
         d="m 73.216363,123.7451 3.60746,-14.0015"
         id="path1573" /><circle
         style="fill:#000000;fill-opacity:1;stroke:none;stroke-width:0.221691;stroke-linejoin:round;stroke-dasharray:0.665073, 0.665073;stroke-dashoffset:0"
         id="circle1577"
         cx="-80.028015"
         cy="90.474373"
         r="1.9877276"
         transform="scale(-1,1)" /><path
         style="fill:none;fill-opacity:1;stroke:#000000;stroke-width:0.2;stroke-linejoin:round;stroke-dasharray:none;stroke-dashoffset:0;stroke-opacity:1"
         id="path1579"
         sodipodi:type="arc"
         sodipodi:cx="-80.028015"
         sodipodi:cy="90.474373"
         sodipodi:rx="4.1814184"
         sodipodi:ry="4.1795321"
         sodipodi:start="4.118977"
         sodipodi:end="0.99483767"
         sodipodi:arc-type="arc"
         d="m -82.366235,87.009384 a 4.1814184,4.1795321 0 0 1 4.193066,-0.280827 4.1814184,4.1795321 0 0 1 2.319498,3.502798 4.1814184,4.1795321 0 0 1 -1.89698,3.748268"
         sodipodi:open="true"
         transform="scale(-1,1)" /><path
         style="fill:none;fill-opacity:1;stroke:#000000;stroke-width:0.2;stroke-linejoin:round;stroke-dasharray:none;stroke-dashoffset:0;stroke-opacity:1"
         id="path1581"
         sodipodi:type="arc"
         sodipodi:cx="-80.147064"
         sodipodi:cy="90.5326"
         sodipodi:rx="6.9377522"
         sodipodi:ry="6.9346223"
         sodipodi:start="4.118977"
         sodipodi:end="0.99483767"
         sodipodi:arc-type="arc"
         d="m -84.026606,84.783538 a 6.9377522,6.9346223 0 0 1 6.957078,-0.465944 6.9377522,6.9346223 0 0 1 3.848478,5.811794 6.9377522,6.9346223 0 0 1 -3.147443,6.219076"
         sodipodi:open="true"
         transform="scale(-1,1)" /><circle
         style="fill:#000000;fill-opacity:1;stroke:none;stroke-width:0.26803;stroke-linejoin:round;stroke-dasharray:0.80409, 0.80409;stroke-dashoffset:0"
         id="circle1583"
         cx="-101.09473"
         cy="37.302719"
         r="2.4032133"
         transform="scale(-1,1)" /><path
         style="fill:none;fill-opacity:1;stroke:#000000;stroke-width:0.2;stroke-linejoin:round;stroke-dasharray:0.80000001,0.40000001,0.2,0.40000001;stroke-dashoffset:0;stroke-opacity:1"
         d="M 99.924931,49.963497 H 110.07507"
         id="path1585" /><path
         style="fill:none;fill-opacity:1;stroke:#000000;stroke-width:0.2;stroke-linejoin:round;stroke-dasharray:0.6, 0.6;stroke-dashoffset:0;stroke-opacity:1"
         d="M 99.924931,45.131308 H 110.07507"
         id="path1587" /><path
         style="fill:none;stroke:#000000;stroke-width:0.2;stroke-linecap:butt;stroke-linejoin:miter;stroke-opacity:1;stroke-dasharray:0.80000001,0.40000001,0.2,0.40000001;stroke-dashoffset:0"
         d="m 84.642843,113.50567 v 9.539"
         id="path1021" /><path
         style="fill:none;stroke:#000000;stroke-width:0.2;stroke-linecap:butt;stroke-linejoin:miter;stroke-opacity:1;stroke-dasharray:0.80000001,0.40000001,0.2,0.40000001;stroke-dashoffset:0"
         d="m 125.35716,113.50567 v 9.53904"
         id="path1023" /><path
         style="fill:none;stroke:#000000;stroke-width:0.2;stroke-linecap:butt;stroke-linejoin:miter;stroke-dasharray:0.6, 0.6;stroke-dashoffset:0;stroke-opacity:1"
         d="M 99.92493,49.963496 84.642843,113.50567 H 125.35716 L 110.07507,49.963496"
         id="path1025"
         sodipodi:nodetypes="cccc" /><path
         style="fill:none;stroke:#000000;stroke-width:0.2;stroke-linecap:butt;stroke-linejoin:miter;stroke-opacity:1;stroke-dasharray:0.60000001,0.60000001;stroke-dashoffset:0"
         d="M 84.642843,226.04405 V 123.04467 l 40.714317,4e-5 v 102.99938"
         id="path1027" /></g></g></svg>
