<?xml version="1.0" encoding="UTF-8" standalone="no"?>
<!-- Created with Inkscape (http://www.inkscape.org/) -->

<svg
   width="210mm"
   height="297mm"
   viewBox="0 0 210 297"
   version="1.1"
   id="svg5"
   xml:space="preserve"
   inkscape:version="1.2.1 (9c6d41e410, 2022-07-14)"
   sodipodi:docname="46_La_Lechuza_14-06-1936.svg"
   xmlns:inkscape="http://www.inkscape.org/namespaces/inkscape"
   xmlns:sodipodi="http://sodipodi.sourceforge.net/DTD/sodipodi-0.dtd"
   xmlns="http://www.w3.org/2000/svg"
   xmlns:svg="http://www.w3.org/2000/svg"><sodipodi:namedview
     id="namedview7"
     pagecolor="#ffffff"
     bordercolor="#999999"
     borderopacity="1"
     inkscape:showpageshadow="0"
     inkscape:pageopacity="0"
     inkscape:pagecheckerboard="0"
     inkscape:deskcolor="#d1d1d1"
     inkscape:document-units="mm"
     showgrid="false"
     inkscape:zoom="0.74564394"
     inkscape:cx="182.39268"
     inkscape:cy="692.0193"
     inkscape:window-width="1920"
     inkscape:window-height="1017"
     inkscape:window-x="-8"
     inkscape:window-y="-8"
     inkscape:window-maximized="1"
     inkscape:current-layer="layer1" /><defs
     id="defs2" /><g
     inkscape:label="Camada 1"
     inkscape:groupmode="layer"
     id="layer1"><g
       id="g1308"
       transform="translate(-4.2891165,14.045143)"><path
         id="path1271"
         style="fill:#000000;fill-opacity:1;stroke:none;stroke-width:0.2;stroke-linejoin:bevel;stroke-miterlimit:5.3;stroke-dasharray:none"
         d="m 131.59129,76.913895 c 0,6.158522 -4.99247,11.150991 -11.15099,11.150992 -6.15852,-10e-7 -11.15099,-4.99247 -11.15118,-11.150992 -1.9e-4,6.158522 -4.99266,11.150991 -11.151181,11.150992 -6.158523,0 -11.150992,-4.992469 -11.150992,-11.150992 m -2e-6,0 0.440036,22.021731 h 43.724279 l 0.44003,-22.021731" /><path
         id="path1029"
         style="fill:none;stroke:#000000;stroke-width:0.2;stroke-linejoin:bevel;stroke-miterlimit:5.3;stroke-dasharray:none"
         d="M 86.577466,56.736759 A 11.354838,11.354838 0 0 1 97.932304,45.381921 11.354838,11.354838 0 0 1 109.28714,56.736759" /><path
         id="path1135"
         style="fill:none;stroke:#000000;stroke-width:0.2;stroke-linejoin:bevel;stroke-miterlimit:5.3;stroke-dasharray:none"
         d="m 80.427608,219.33378 a 18.55917,18.55917 0 0 1 -16.788559,8.12796 18.55917,18.55917 0 0 1 -15.372094,-10.56495 18.55917,18.55917 0 0 1 1.571622,-18.58627" /><path
         style="fill:none;stroke:#000000;stroke-width:0.2;stroke-linecap:butt;stroke-linejoin:miter;stroke-dasharray:none;stroke-opacity:1"
         d="M 97.935483,193.83064 80.34225,219.45922"
         id="path1137" /><path
         style="fill:none;stroke:#000000;stroke-width:0.2;stroke-linecap:butt;stroke-linejoin:miter;stroke-dasharray:none;stroke-opacity:1"
         d="M 66.266128,174.75806 49.81916,198.33831"
         id="path1139" /><path
         style="fill:none;stroke:#000000;stroke-width:0.2;stroke-linecap:butt;stroke-linejoin:miter;stroke-dasharray:none;stroke-opacity:1"
         d="M 97.935483,193.83064 89.951209,180.61291"
         id="path1141"
         sodipodi:nodetypes="cc" /><path
         style="fill:none;stroke:#000000;stroke-width:0.2;stroke-linecap:butt;stroke-linejoin:miter;stroke-dasharray:0.6, 0.6;stroke-dashoffset:0;stroke-opacity:1"
         d="M 89.951209,180.61291 66.266128,174.75806 55.177419,122.41935 87.439151,99.539977"
         id="path1143"
         sodipodi:nodetypes="cccc" /><path
         style="fill:none;stroke:#000000;stroke-width:0.2;stroke-linecap:butt;stroke-linejoin:miter;stroke-dasharray:none;stroke-opacity:1"
         d="M 87.43915,99.539977 63.446342,64.225807 30.82884,87.724001 55.177419,122.41935 14.149193,132.4879 l 17.431452,69.59274 14.178857,-3.36083 -4.610449,-18.33314 25.117075,-5.62861"
         id="path1145"
         sodipodi:nodetypes="ccccccccc" /><path
         style="fill:none;stroke:#000000;stroke-width:0.2;stroke-linecap:butt;stroke-linejoin:miter;stroke-dasharray:0.8, 0.4, 0.2, 0.4;stroke-dashoffset:0;stroke-opacity:1"
         d="m 41.149053,180.38667 -14.116606,3.5359"
         id="path1147" /><path
         style="fill:none;stroke:#000000;stroke-width:0.2;stroke-linecap:butt;stroke-linejoin:miter;stroke-dasharray:none;stroke-opacity:1"
         d="m 89.582311,205.99895 0.382424,18.99645 14.313485,-0.47121 -0.4879,-18.98387"
         id="path1158" /><path
         style="fill:none;stroke:#000000;stroke-width:0.2;stroke-linecap:butt;stroke-linejoin:miter;stroke-dasharray:0.6, 0.6;stroke-dashoffset:0;stroke-opacity:1"
         d="m 87.43915,99.539977 2.512059,81.072933"
         id="path1162"
         sodipodi:nodetypes="cc" /><path
         style="fill:none;stroke:#000000;stroke-width:0.2;stroke-linecap:butt;stroke-linejoin:miter;stroke-dasharray:none;stroke-dashoffset:0;stroke-opacity:1"
         d="m 86.577465,56.736757 0.861685,42.80322"
         id="path1152" /><circle
         style="fill:#000000;fill-opacity:1;stroke:none;stroke-width:0.226412;stroke-linejoin:bevel;stroke-miterlimit:5.3;stroke-dasharray:0.905646, 0.452824, 0.226412, 0.452824;stroke-dashoffset:0;stroke-opacity:1"
         id="path1164"
         cx="100.59302"
         cy="64.671768"
         r="3.1131616" /><path
         style="fill:none;fill-opacity:1;stroke:#000000;stroke-width:0.186472;stroke-linejoin:bevel;stroke-miterlimit:5.3;stroke-dasharray:none;stroke-dashoffset:0;stroke-opacity:1"
         id="path1166"
         sodipodi:type="arc"
         sodipodi:cx="96.856361"
         sodipodi:cy="64.723969"
         sodipodi:rx="6.7532587"
         sodipodi:ry="6.7532587"
         sodipodi:start="0"
         sodipodi:end="2.5830873"
         sodipodi:arc-type="arc"
         d="M 103.60962,64.723969 A 6.7532587,6.7532587 0 0 1 98.717812,71.215617 6.7532587,6.7532587 0 0 1 91.129273,68.30265"
         sodipodi:open="true" /><path
         id="path1232"
         style="fill:none;stroke:#000000;stroke-width:0.2;stroke-linejoin:bevel;stroke-miterlimit:5.3;stroke-dasharray:none"
         d="M 132.00077,56.736759 A 11.354838,11.354838 0 0 0 120.64593,45.381921 11.354838,11.354838 0 0 0 109.2911,56.736759" /><path
         id="path1234"
         style="fill:none;stroke:#000000;stroke-width:0.2;stroke-linejoin:bevel;stroke-miterlimit:5.3;stroke-dasharray:none"
         d="m 131.59129,76.913895 c 0,6.158522 -4.99247,11.150991 -11.15099,11.150992 -6.15852,-10e-7 -11.15099,-4.99247 -11.15118,-11.150992 -1.9e-4,6.158522 -4.99266,11.150991 -11.151181,11.150992 -6.158523,0 -11.150992,-4.992469 -11.150992,-11.150992"
         sodipodi:nodetypes="cscsc" /><path
         id="path1230"
         style="fill:#000000;fill-opacity:1;stroke:#000000;stroke-width:0.2;stroke-linecap:butt;stroke-linejoin:miter;stroke-dasharray:none;stroke-opacity:1"
         d="m 109.28894,41.604696 c 0.012,1.934811 0.008,3.527787 0,5.034834 -0.008,-1.507047 -0.012,-3.100023 0,-5.034834 z m 0,0 c 0,0 -1.80953,5.309081 -2.63292,7.863602 2.50586,3.199666 2.63292,9.997323 2.63292,9.997323 0,0 0.12757,-6.797657 2.63343,-9.997323 -0.82339,-2.554521 -2.63343,-7.863602 -2.63343,-7.863602 z" /><path
         id="path1236"
         style="fill:none;stroke:#000000;stroke-width:0.2;stroke-linejoin:bevel;stroke-miterlimit:5.3;stroke-dasharray:none"
         d="m 138.15063,219.33378 a 18.55917,18.55917 0 0 0 16.78856,8.12796 18.55917,18.55917 0 0 0 15.37209,-10.56495 18.55917,18.55917 0 0 0 -1.57162,-18.58627" /><path
         style="fill:none;stroke:#000000;stroke-width:0.2;stroke-linecap:butt;stroke-linejoin:miter;stroke-dasharray:none;stroke-opacity:1"
         d="m 120.64275,193.83064 17.59324,25.62858"
         id="path1238" /><path
         style="fill:none;stroke:#000000;stroke-width:0.2;stroke-linecap:butt;stroke-linejoin:miter;stroke-dasharray:none;stroke-opacity:1"
         d="m 152.31211,174.75806 16.44697,23.58025"
         id="path1240" /><path
         style="fill:none;stroke:#000000;stroke-width:0.2;stroke-linecap:butt;stroke-linejoin:miter;stroke-dasharray:none;stroke-opacity:1"
         d="m 120.64275,193.83064 7.98428,-13.21773"
         id="path1242"
         sodipodi:nodetypes="cc" /><path
         style="fill:none;stroke:#000000;stroke-width:0.2;stroke-linecap:butt;stroke-linejoin:miter;stroke-dasharray:0.6, 0.6;stroke-dashoffset:0;stroke-opacity:1"
         d="m 128.62703,180.61291 23.68508,-5.85485 11.08871,-52.33871 -32.26173,-22.879373"
         id="path1244"
         sodipodi:nodetypes="cccc" /><path
         style="fill:none;stroke:#000000;stroke-width:0.2;stroke-linecap:butt;stroke-linejoin:miter;stroke-dasharray:none;stroke-opacity:1"
         d="m 131.13909,99.539977 23.99281,-35.31417 32.6175,23.498194 -24.34858,34.695349 41.02822,10.06855 -17.43145,69.59274 -14.17885,-3.36083 4.61044,-18.33314 -25.11707,-5.62861"
         id="path1246"
         sodipodi:nodetypes="ccccccccc" /><path
         style="fill:none;stroke:#000000;stroke-width:0.2;stroke-linecap:butt;stroke-linejoin:miter;stroke-dasharray:0.8, 0.4, 0.2, 0.4;stroke-dashoffset:0;stroke-opacity:1"
         d="m 177.42918,180.38667 14.11661,3.5359"
         id="path1248" /><path
         style="fill:none;stroke:#000000;stroke-width:0.2;stroke-linecap:butt;stroke-linejoin:miter;stroke-dasharray:none;stroke-opacity:1"
         d="m 128.99593,205.99895 -0.38243,18.99645 -14.31348,-0.47121 0.4879,-18.98387"
         id="path1250" /><path
         style="fill:none;stroke:#000000;stroke-width:0.2;stroke-linecap:butt;stroke-linejoin:miter;stroke-dasharray:0.6, 0.6;stroke-dashoffset:0;stroke-opacity:1"
         d="m 131.13909,99.539977 -2.51206,81.072933"
         id="path1252"
         sodipodi:nodetypes="cc" /><path
         style="fill:none;stroke:#000000;stroke-width:0.2;stroke-linecap:butt;stroke-linejoin:miter;stroke-dasharray:none;stroke-dashoffset:0;stroke-opacity:1"
         d="m 132.00077,56.736757 -0.86168,42.80322"
         id="path1254" /><circle
         style="fill:#000000;fill-opacity:1;stroke:none;stroke-width:0.226412;stroke-linejoin:bevel;stroke-miterlimit:5.3;stroke-dasharray:0.905646, 0.452824, 0.226412, 0.452824;stroke-dashoffset:0;stroke-opacity:1"
         id="circle1256"
         cx="-117.98522"
         cy="64.671768"
         r="3.1131616"
         transform="scale(-1,1)" /><path
         style="fill:none;fill-opacity:1;stroke:#000000;stroke-width:0.186472;stroke-linejoin:bevel;stroke-miterlimit:5.3;stroke-dasharray:none;stroke-dashoffset:0;stroke-opacity:1"
         id="path1258"
         sodipodi:type="arc"
         sodipodi:cx="-121.72187"
         sodipodi:cy="64.723969"
         sodipodi:rx="6.7532587"
         sodipodi:ry="6.7532587"
         sodipodi:start="0"
         sodipodi:end="2.5830873"
         sodipodi:arc-type="arc"
         d="m -114.96861,64.723969 a 6.7532587,6.7532587 0 0 1 -4.89181,6.491648 6.7532587,6.7532587 0 0 1 -7.58854,-2.912967"
         sodipodi:open="true"
         transform="scale(-1,1)" /><path
         style="fill:none;stroke:#000000;stroke-width:0.2;stroke-linecap:butt;stroke-linejoin:miter;stroke-dasharray:0.6, 0.6;stroke-dashoffset:0;stroke-opacity:1"
         d="m 87.43915,99.539977 h 43.69994"
         id="path1263" /><path
         style="fill:none;stroke:#000000;stroke-width:0.2;stroke-linecap:butt;stroke-linejoin:miter;stroke-dasharray:0.6, 0.6;stroke-dashoffset:0;stroke-opacity:1"
         d="M 89.951207,180.61291 H 128.62703"
         id="path1265" /><path
         style="fill:none;stroke:#000000;stroke-width:0.2;stroke-linecap:butt;stroke-linejoin:miter;stroke-dasharray:none;stroke-opacity:1"
         d="m 103.79032,205.54032 h 10.9976"
         id="path1274" /></g></g></svg>
